ISO-10303-21;
HEADER;
/* Generated by software containing ST-Developer
 * from STEP Tools, Inc. (www.steptools.com) 
 */

FILE_DESCRIPTION(
/* description */ (''),
/* implementation_level */ '2;1');

FILE_NAME(
/* name */ 'MacroPad Body.step',
/* time_stamp */ '2026-08-12T21:11:14-07:00',
/* author */ (''),
/* organization */ (''),
/* preprocessor_version */ 'ST-DEVELOPER v20.1',
/* originating_system */ 'Autodesk Translation Framework v15.8.0.0',
/* authorisation */ '');

FILE_SCHEMA (('AUTOMOTIVE_DESIGN { 1 0 10303 214 3 1 1 }'));
ENDSEC;

DATA;
#10=MECHANICAL_DESIGN_GEOMETRIC_PRESENTATION_REPRESENTATION('',(#13),#1423);
#11=SHAPE_REPRESENTATION_RELATIONSHIP('SRR','None',#1429,#12);
#12=ADVANCED_BREP_SHAPE_REPRESENTATION('',(#14),#1422);
#13=STYLED_ITEM('',(#1449),#14);
#14=MANIFOLD_SOLID_BREP('Body1',#895);
#15=CIRCLE('',#909,2.1);
#16=CIRCLE('',#910,2.1);
#17=CIRCLE('',#912,2.1);
#18=CIRCLE('',#913,2.1);
#19=CIRCLE('',#915,2.1);
#20=CIRCLE('',#916,2.1);
#21=CIRCLE('',#918,2.1);
#22=CIRCLE('',#919,2.1);
#23=CYLINDRICAL_SURFACE('',#908,2.1);
#24=CYLINDRICAL_SURFACE('',#911,2.1);
#25=CYLINDRICAL_SURFACE('',#914,2.1);
#26=CYLINDRICAL_SURFACE('',#917,2.1);
#27=FACE_BOUND('',#90,.T.);
#28=FACE_BOUND('',#91,.T.);
#29=FACE_BOUND('',#92,.T.);
#30=FACE_BOUND('',#93,.T.);
#31=FACE_BOUND('',#105,.T.);
#32=FACE_BOUND('',#113,.T.);
#33=FACE_BOUND('',#121,.T.);
#34=FACE_BOUND('',#129,.T.);
#35=FACE_BOUND('',#137,.T.);
#36=FACE_BOUND('',#138,.T.);
#37=FACE_BOUND('',#139,.T.);
#38=FACE_BOUND('',#140,.T.);
#39=FACE_OUTER_BOUND('',#85,.T.);
#40=FACE_OUTER_BOUND('',#86,.T.);
#41=FACE_OUTER_BOUND('',#87,.T.);
#42=FACE_OUTER_BOUND('',#88,.T.);
#43=FACE_OUTER_BOUND('',#89,.T.);
#44=FACE_OUTER_BOUND('',#94,.T.);
#45=FACE_OUTER_BOUND('',#95,.T.);
#46=FACE_OUTER_BOUND('',#96,.T.);
#47=FACE_OUTER_BOUND('',#97,.T.);
#48=FACE_OUTER_BOUND('',#98,.T.);
#49=FACE_OUTER_BOUND('',#99,.T.);
#50=FACE_OUTER_BOUND('',#100,.T.);
#51=FACE_OUTER_BOUND('',#101,.T.);
#52=FACE_OUTER_BOUND('',#102,.T.);
#53=FACE_OUTER_BOUND('',#103,.T.);
#54=FACE_OUTER_BOUND('',#104,.T.);
#55=FACE_OUTER_BOUND('',#106,.T.);
#56=FACE_OUTER_BOUND('',#107,.T.);
#57=FACE_OUTER_BOUND('',#108,.T.);
#58=FACE_OUTER_BOUND('',#109,.T.);
#59=FACE_OUTER_BOUND('',#110,.T.);
#60=FACE_OUTER_BOUND('',#111,.T.);
#61=FACE_OUTER_BOUND('',#112,.T.);
#62=FACE_OUTER_BOUND('',#114,.T.);
#63=FACE_OUTER_BOUND('',#115,.T.);
#64=FACE_OUTER_BOUND('',#116,.T.);
#65=FACE_OUTER_BOUND('',#117,.T.);
#66=FACE_OUTER_BOUND('',#118,.T.);
#67=FACE_OUTER_BOUND('',#119,.T.);
#68=FACE_OUTER_BOUND('',#120,.T.);
#69=FACE_OUTER_BOUND('',#122,.T.);
#70=FACE_OUTER_BOUND('',#123,.T.);
#71=FACE_OUTER_BOUND('',#124,.T.);
#72=FACE_OUTER_BOUND('',#125,.T.);
#73=FACE_OUTER_BOUND('',#126,.T.);
#74=FACE_OUTER_BOUND('',#127,.T.);
#75=FACE_OUTER_BOUND('',#128,.T.);
#76=FACE_OUTER_BOUND('',#130,.T.);
#77=FACE_OUTER_BOUND('',#131,.T.);
#78=FACE_OUTER_BOUND('',#132,.T.);
#79=FACE_OUTER_BOUND('',#133,.T.);
#80=FACE_OUTER_BOUND('',#134,.T.);
#81=FACE_OUTER_BOUND('',#135,.T.);
#82=FACE_OUTER_BOUND('',#136,.T.);
#83=FACE_OUTER_BOUND('',#141,.T.);
#84=FACE_OUTER_BOUND('',#142,.T.);
#85=EDGE_LOOP('',(#567,#568,#569,#570));
#86=EDGE_LOOP('',(#571,#572,#573,#574));
#87=EDGE_LOOP('',(#575,#576,#577,#578));
#88=EDGE_LOOP('',(#579,#580,#581,#582,#583,#584,#585,#586));
#89=EDGE_LOOP('',(#587,#588,#589,#590));
#90=EDGE_LOOP('',(#591,#592,#593,#594,#595,#596));
#91=EDGE_LOOP('',(#597,#598,#599,#600,#601,#602));
#92=EDGE_LOOP('',(#603,#604,#605,#606,#607,#608));
#93=EDGE_LOOP('',(#609,#610,#611,#612,#613,#614));
#94=EDGE_LOOP('',(#615,#616,#617,#618));
#95=EDGE_LOOP('',(#619,#620,#621,#622));
#96=EDGE_LOOP('',(#623,#624,#625,#626));
#97=EDGE_LOOP('',(#627,#628,#629,#630));
#98=EDGE_LOOP('',(#631,#632,#633,#634));
#99=EDGE_LOOP('',(#635,#636,#637,#638));
#100=EDGE_LOOP('',(#639,#640,#641,#642));
#101=EDGE_LOOP('',(#643,#644,#645,#646));
#102=EDGE_LOOP('',(#647,#648,#649,#650));
#103=EDGE_LOOP('',(#651,#652,#653,#654));
#104=EDGE_LOOP('',(#655,#656,#657,#658,#659,#660));
#105=EDGE_LOOP('',(#661));
#106=EDGE_LOOP('',(#662,#663,#664,#665));
#107=EDGE_LOOP('',(#666,#667,#668,#669));
#108=EDGE_LOOP('',(#670,#671,#672,#673));
#109=EDGE_LOOP('',(#674,#675,#676,#677));
#110=EDGE_LOOP('',(#678,#679,#680,#681));
#111=EDGE_LOOP('',(#682,#683,#684,#685));
#112=EDGE_LOOP('',(#686,#687,#688,#689,#690,#691));
#113=EDGE_LOOP('',(#692));
#114=EDGE_LOOP('',(#693,#694,#695,#696));
#115=EDGE_LOOP('',(#697,#698,#699,#700));
#116=EDGE_LOOP('',(#701,#702,#703,#704));
#117=EDGE_LOOP('',(#705,#706,#707,#708));
#118=EDGE_LOOP('',(#709,#710,#711,#712));
#119=EDGE_LOOP('',(#713,#714,#715,#716));
#120=EDGE_LOOP('',(#717,#718,#719,#720,#721,#722));
#121=EDGE_LOOP('',(#723));
#122=EDGE_LOOP('',(#724,#725,#726,#727));
#123=EDGE_LOOP('',(#728,#729,#730,#731));
#124=EDGE_LOOP('',(#732,#733,#734,#735));
#125=EDGE_LOOP('',(#736,#737,#738,#739));
#126=EDGE_LOOP('',(#740,#741,#742,#743));
#127=EDGE_LOOP('',(#744,#745,#746,#747));
#128=EDGE_LOOP('',(#748,#749,#750,#751,#752,#753));
#129=EDGE_LOOP('',(#754));
#130=EDGE_LOOP('',(#755,#756,#757,#758));
#131=EDGE_LOOP('',(#759,#760,#761,#762));
#132=EDGE_LOOP('',(#763,#764,#765,#766));
#133=EDGE_LOOP('',(#767,#768,#769,#770));
#134=EDGE_LOOP('',(#771,#772,#773,#774));
#135=EDGE_LOOP('',(#775,#776,#777,#778));
#136=EDGE_LOOP('',(#779,#780,#781,#782,#783,#784,#785,#786,#787,#788,#789,
#790));
#137=EDGE_LOOP('',(#791));
#138=EDGE_LOOP('',(#792));
#139=EDGE_LOOP('',(#793));
#140=EDGE_LOOP('',(#794));
#141=EDGE_LOOP('',(#795,#796,#797,#798));
#142=EDGE_LOOP('',(#799,#800,#801,#802,#803,#804,#805,#806));
#143=LINE('',#1177,#255);
#144=LINE('',#1179,#256);
#145=LINE('',#1181,#257);
#146=LINE('',#1182,#258);
#147=LINE('',#1186,#259);
#148=LINE('',#1188,#260);
#149=LINE('',#1190,#261);
#150=LINE('',#1191,#262);
#151=LINE('',#1193,#263);
#152=LINE('',#1194,#264);
#153=LINE('',#1197,#265);
#154=LINE('',#1199,#266);
#155=LINE('',#1201,#267);
#156=LINE('',#1203,#268);
#157=LINE('',#1204,#269);
#158=LINE('',#1208,#270);
#159=LINE('',#1210,#271);
#160=LINE('',#1212,#272);
#161=LINE('',#1213,#273);
#162=LINE('',#1216,#274);
#163=LINE('',#1218,#275);
#164=LINE('',#1220,#276);
#165=LINE('',#1222,#277);
#166=LINE('',#1224,#278);
#167=LINE('',#1225,#279);
#168=LINE('',#1228,#280);
#169=LINE('',#1230,#281);
#170=LINE('',#1232,#282);
#171=LINE('',#1234,#283);
#172=LINE('',#1236,#284);
#173=LINE('',#1237,#285);
#174=LINE('',#1240,#286);
#175=LINE('',#1242,#287);
#176=LINE('',#1244,#288);
#177=LINE('',#1246,#289);
#178=LINE('',#1248,#290);
#179=LINE('',#1249,#291);
#180=LINE('',#1252,#292);
#181=LINE('',#1254,#293);
#182=LINE('',#1256,#294);
#183=LINE('',#1258,#295);
#184=LINE('',#1260,#296);
#185=LINE('',#1261,#297);
#186=LINE('',#1264,#298);
#187=LINE('',#1266,#299);
#188=LINE('',#1267,#300);
#189=LINE('',#1271,#301);
#190=LINE('',#1272,#302);
#191=LINE('',#1273,#303);
#192=LINE('',#1276,#304);
#193=LINE('',#1277,#305);
#194=LINE('',#1280,#306);
#195=LINE('',#1281,#307);
#196=LINE('',#1284,#308);
#197=LINE('',#1285,#309);
#198=LINE('',#1287,#310);
#199=LINE('',#1292,#311);
#200=LINE('',#1298,#312);
#201=LINE('',#1304,#313);
#202=LINE('',#1310,#314);
#203=LINE('',#1315,#315);
#204=LINE('',#1317,#316);
#205=LINE('',#1319,#317);
#206=LINE('',#1321,#318);
#207=LINE('',#1323,#319);
#208=LINE('',#1324,#320);
#209=LINE('',#1326,#321);
#210=LINE('',#1327,#322);
#211=LINE('',#1329,#323);
#212=LINE('',#1331,#324);
#213=LINE('',#1333,#325);
#214=LINE('',#1335,#326);
#215=LINE('',#1340,#327);
#216=LINE('',#1342,#328);
#217=LINE('',#1344,#329);
#218=LINE('',#1346,#330);
#219=LINE('',#1348,#331);
#220=LINE('',#1349,#332);
#221=LINE('',#1351,#333);
#222=LINE('',#1352,#334);
#223=LINE('',#1354,#335);
#224=LINE('',#1356,#336);
#225=LINE('',#1358,#337);
#226=LINE('',#1360,#338);
#227=LINE('',#1365,#339);
#228=LINE('',#1367,#340);
#229=LINE('',#1369,#341);
#230=LINE('',#1371,#342);
#231=LINE('',#1373,#343);
#232=LINE('',#1374,#344);
#233=LINE('',#1376,#345);
#234=LINE('',#1377,#346);
#235=LINE('',#1379,#347);
#236=LINE('',#1381,#348);
#237=LINE('',#1383,#349);
#238=LINE('',#1385,#350);
#239=LINE('',#1390,#351);
#240=LINE('',#1392,#352);
#241=LINE('',#1394,#353);
#242=LINE('',#1396,#354);
#243=LINE('',#1398,#355);
#244=LINE('',#1399,#356);
#245=LINE('',#1401,#357);
#246=LINE('',#1402,#358);
#247=LINE('',#1404,#359);
#248=LINE('',#1406,#360);
#249=LINE('',#1408,#361);
#250=LINE('',#1410,#362);
#251=LINE('',#1413,#363);
#252=LINE('',#1415,#364);
#253=LINE('',#1416,#365);
#254=LINE('',#1418,#366);
#255=VECTOR('',#955,10.);
#256=VECTOR('',#956,10.);
#257=VECTOR('',#957,10.);
#258=VECTOR('',#958,10.);
#259=VECTOR('',#961,10.);
#260=VECTOR('',#962,10.);
#261=VECTOR('',#963,10.);
#262=VECTOR('',#964,10.);
#263=VECTOR('',#967,10.);
#264=VECTOR('',#968,10.);
#265=VECTOR('',#971,10.);
#266=VECTOR('',#972,10.);
#267=VECTOR('',#973,10.);
#268=VECTOR('',#974,10.);
#269=VECTOR('',#975,10.);
#270=VECTOR('',#978,10.);
#271=VECTOR('',#979,10.);
#272=VECTOR('',#980,10.);
#273=VECTOR('',#981,10.);
#274=VECTOR('',#982,10.);
#275=VECTOR('',#983,10.);
#276=VECTOR('',#984,10.);
#277=VECTOR('',#985,10.);
#278=VECTOR('',#986,10.);
#279=VECTOR('',#987,10.);
#280=VECTOR('',#988,10.);
#281=VECTOR('',#989,10.);
#282=VECTOR('',#990,10.);
#283=VECTOR('',#991,10.);
#284=VECTOR('',#992,10.);
#285=VECTOR('',#993,10.);
#286=VECTOR('',#994,10.);
#287=VECTOR('',#995,10.);
#288=VECTOR('',#996,10.);
#289=VECTOR('',#997,10.);
#290=VECTOR('',#998,10.);
#291=VECTOR('',#999,10.);
#292=VECTOR('',#1000,10.);
#293=VECTOR('',#1001,10.);
#294=VECTOR('',#1002,10.);
#295=VECTOR('',#1003,10.);
#296=VECTOR('',#1004,10.);
#297=VECTOR('',#1005,10.);
#298=VECTOR('',#1008,10.);
#299=VECTOR('',#1009,10.);
#300=VECTOR('',#1010,10.);
#301=VECTOR('',#1013,10.);
#302=VECTOR('',#1014,10.);
#303=VECTOR('',#1015,10.);
#304=VECTOR('',#1018,10.);
#305=VECTOR('',#1019,10.);
#306=VECTOR('',#1022,10.);
#307=VECTOR('',#1023,10.);
#308=VECTOR('',#1026,10.);
#309=VECTOR('',#1027,10.);
#310=VECTOR('',#1030,10.);
#311=VECTOR('',#1035,2.1);
#312=VECTOR('',#1042,2.1);
#313=VECTOR('',#1049,2.1);
#314=VECTOR('',#1056,2.1);
#315=VECTOR('',#1061,10.);
#316=VECTOR('',#1062,10.);
#317=VECTOR('',#1063,10.);
#318=VECTOR('',#1064,10.);
#319=VECTOR('',#1065,10.);
#320=VECTOR('',#1066,10.);
#321=VECTOR('',#1069,10.);
#322=VECTOR('',#1070,10.);
#323=VECTOR('',#1073,10.);
#324=VECTOR('',#1076,10.);
#325=VECTOR('',#1079,10.);
#326=VECTOR('',#1082,10.);
#327=VECTOR('',#1087,10.);
#328=VECTOR('',#1088,10.);
#329=VECTOR('',#1089,10.);
#330=VECTOR('',#1090,10.);
#331=VECTOR('',#1091,10.);
#332=VECTOR('',#1092,10.);
#333=VECTOR('',#1095,10.);
#334=VECTOR('',#1096,10.);
#335=VECTOR('',#1099,10.);
#336=VECTOR('',#1102,10.);
#337=VECTOR('',#1105,10.);
#338=VECTOR('',#1108,10.);
#339=VECTOR('',#1113,10.);
#340=VECTOR('',#1114,10.);
#341=VECTOR('',#1115,10.);
#342=VECTOR('',#1116,10.);
#343=VECTOR('',#1117,10.);
#344=VECTOR('',#1118,10.);
#345=VECTOR('',#1121,10.);
#346=VECTOR('',#1122,10.);
#347=VECTOR('',#1125,10.);
#348=VECTOR('',#1128,10.);
#349=VECTOR('',#1131,10.);
#350=VECTOR('',#1134,10.);
#351=VECTOR('',#1139,10.);
#352=VECTOR('',#1140,10.);
#353=VECTOR('',#1141,10.);
#354=VECTOR('',#1142,10.);
#355=VECTOR('',#1143,10.);
#356=VECTOR('',#1144,10.);
#357=VECTOR('',#1147,10.);
#358=VECTOR('',#1148,10.);
#359=VECTOR('',#1151,10.);
#360=VECTOR('',#1154,10.);
#361=VECTOR('',#1157,10.);
#362=VECTOR('',#1160,10.);
#363=VECTOR('',#1165,10.);
#364=VECTOR('',#1166,10.);
#365=VECTOR('',#1167,10.);
#366=VECTOR('',#1170,10.);
#367=VERTEX_POINT('',#1175);
#368=VERTEX_POINT('',#1176);
#369=VERTEX_POINT('',#1178);
#370=VERTEX_POINT('',#1180);
#371=VERTEX_POINT('',#1184);
#372=VERTEX_POINT('',#1185);
#373=VERTEX_POINT('',#1187);
#374=VERTEX_POINT('',#1189);
#375=VERTEX_POINT('',#1196);
#376=VERTEX_POINT('',#1198);
#377=VERTEX_POINT('',#1200);
#378=VERTEX_POINT('',#1202);
#379=VERTEX_POINT('',#1206);
#380=VERTEX_POINT('',#1207);
#381=VERTEX_POINT('',#1209);
#382=VERTEX_POINT('',#1211);
#383=VERTEX_POINT('',#1214);
#384=VERTEX_POINT('',#1215);
#385=VERTEX_POINT('',#1217);
#386=VERTEX_POINT('',#1219);
#387=VERTEX_POINT('',#1221);
#388=VERTEX_POINT('',#1223);
#389=VERTEX_POINT('',#1226);
#390=VERTEX_POINT('',#1227);
#391=VERTEX_POINT('',#1229);
#392=VERTEX_POINT('',#1231);
#393=VERTEX_POINT('',#1233);
#394=VERTEX_POINT('',#1235);
#395=VERTEX_POINT('',#1238);
#396=VERTEX_POINT('',#1239);
#397=VERTEX_POINT('',#1241);
#398=VERTEX_POINT('',#1243);
#399=VERTEX_POINT('',#1245);
#400=VERTEX_POINT('',#1247);
#401=VERTEX_POINT('',#1250);
#402=VERTEX_POINT('',#1251);
#403=VERTEX_POINT('',#1253);
#404=VERTEX_POINT('',#1255);
#405=VERTEX_POINT('',#1257);
#406=VERTEX_POINT('',#1259);
#407=VERTEX_POINT('',#1263);
#408=VERTEX_POINT('',#1265);
#409=VERTEX_POINT('',#1269);
#410=VERTEX_POINT('',#1270);
#411=VERTEX_POINT('',#1275);
#412=VERTEX_POINT('',#1279);
#413=VERTEX_POINT('',#1283);
#414=VERTEX_POINT('',#1289);
#415=VERTEX_POINT('',#1291);
#416=VERTEX_POINT('',#1295);
#417=VERTEX_POINT('',#1297);
#418=VERTEX_POINT('',#1301);
#419=VERTEX_POINT('',#1303);
#420=VERTEX_POINT('',#1307);
#421=VERTEX_POINT('',#1309);
#422=VERTEX_POINT('',#1313);
#423=VERTEX_POINT('',#1314);
#424=VERTEX_POINT('',#1316);
#425=VERTEX_POINT('',#1318);
#426=VERTEX_POINT('',#1320);
#427=VERTEX_POINT('',#1322);
#428=VERTEX_POINT('',#1338);
#429=VERTEX_POINT('',#1339);
#430=VERTEX_POINT('',#1341);
#431=VERTEX_POINT('',#1343);
#432=VERTEX_POINT('',#1345);
#433=VERTEX_POINT('',#1347);
#434=VERTEX_POINT('',#1363);
#435=VERTEX_POINT('',#1364);
#436=VERTEX_POINT('',#1366);
#437=VERTEX_POINT('',#1368);
#438=VERTEX_POINT('',#1370);
#439=VERTEX_POINT('',#1372);
#440=VERTEX_POINT('',#1388);
#441=VERTEX_POINT('',#1389);
#442=VERTEX_POINT('',#1391);
#443=VERTEX_POINT('',#1393);
#444=VERTEX_POINT('',#1395);
#445=VERTEX_POINT('',#1397);
#446=VERTEX_POINT('',#1414);
#447=EDGE_CURVE('',#367,#368,#143,.T.);
#448=EDGE_CURVE('',#369,#367,#144,.T.);
#449=EDGE_CURVE('',#370,#369,#145,.T.);
#450=EDGE_CURVE('',#368,#370,#146,.T.);
#451=EDGE_CURVE('',#371,#372,#147,.T.);
#452=EDGE_CURVE('',#371,#373,#148,.T.);
#453=EDGE_CURVE('',#374,#373,#149,.T.);
#454=EDGE_CURVE('',#372,#374,#150,.T.);
#455=EDGE_CURVE('',#368,#371,#151,.T.);
#456=EDGE_CURVE('',#373,#370,#152,.T.);
#457=EDGE_CURVE('',#369,#375,#153,.T.);
#458=EDGE_CURVE('',#376,#375,#154,.T.);
#459=EDGE_CURVE('',#377,#376,#155,.T.);
#460=EDGE_CURVE('',#377,#378,#156,.T.);
#461=EDGE_CURVE('',#378,#374,#157,.T.);
#462=EDGE_CURVE('',#379,#380,#158,.T.);
#463=EDGE_CURVE('',#380,#381,#159,.T.);
#464=EDGE_CURVE('',#381,#382,#160,.T.);
#465=EDGE_CURVE('',#382,#379,#161,.T.);
#466=EDGE_CURVE('',#383,#384,#162,.T.);
#467=EDGE_CURVE('',#384,#385,#163,.T.);
#468=EDGE_CURVE('',#385,#386,#164,.T.);
#469=EDGE_CURVE('',#386,#387,#165,.T.);
#470=EDGE_CURVE('',#387,#388,#166,.T.);
#471=EDGE_CURVE('',#388,#383,#167,.T.);
#472=EDGE_CURVE('',#389,#390,#168,.T.);
#473=EDGE_CURVE('',#390,#391,#169,.T.);
#474=EDGE_CURVE('',#391,#392,#170,.T.);
#475=EDGE_CURVE('',#392,#393,#171,.T.);
#476=EDGE_CURVE('',#393,#394,#172,.T.);
#477=EDGE_CURVE('',#394,#389,#173,.T.);
#478=EDGE_CURVE('',#395,#396,#174,.T.);
#479=EDGE_CURVE('',#396,#397,#175,.T.);
#480=EDGE_CURVE('',#397,#398,#176,.T.);
#481=EDGE_CURVE('',#398,#399,#177,.T.);
#482=EDGE_CURVE('',#399,#400,#178,.T.);
#483=EDGE_CURVE('',#400,#395,#179,.T.);
#484=EDGE_CURVE('',#401,#402,#180,.T.);
#485=EDGE_CURVE('',#402,#403,#181,.T.);
#486=EDGE_CURVE('',#403,#404,#182,.T.);
#487=EDGE_CURVE('',#404,#405,#183,.T.);
#488=EDGE_CURVE('',#405,#406,#184,.T.);
#489=EDGE_CURVE('',#406,#401,#185,.T.);
#490=EDGE_CURVE('',#376,#407,#186,.T.);
#491=EDGE_CURVE('',#407,#408,#187,.T.);
#492=EDGE_CURVE('',#408,#377,#188,.T.);
#493=EDGE_CURVE('',#409,#410,#189,.T.);
#494=EDGE_CURVE('',#379,#409,#190,.T.);
#495=EDGE_CURVE('',#382,#410,#191,.T.);
#496=EDGE_CURVE('',#410,#411,#192,.T.);
#497=EDGE_CURVE('',#381,#411,#193,.T.);
#498=EDGE_CURVE('',#412,#378,#194,.T.);
#499=EDGE_CURVE('',#408,#412,#195,.T.);
#500=EDGE_CURVE('',#413,#412,#196,.T.);
#501=EDGE_CURVE('',#407,#413,#197,.T.);
#502=EDGE_CURVE('',#375,#413,#198,.T.);
#503=EDGE_CURVE('',#414,#414,#15,.T.);
#504=EDGE_CURVE('',#414,#415,#199,.T.);
#505=EDGE_CURVE('',#415,#415,#16,.T.);
#506=EDGE_CURVE('',#416,#416,#17,.T.);
#507=EDGE_CURVE('',#416,#417,#200,.T.);
#508=EDGE_CURVE('',#417,#417,#18,.T.);
#509=EDGE_CURVE('',#418,#418,#19,.T.);
#510=EDGE_CURVE('',#418,#419,#201,.T.);
#511=EDGE_CURVE('',#419,#419,#20,.T.);
#512=EDGE_CURVE('',#420,#420,#21,.T.);
#513=EDGE_CURVE('',#420,#421,#202,.T.);
#514=EDGE_CURVE('',#421,#421,#22,.T.);
#515=EDGE_CURVE('',#422,#423,#203,.T.);
#516=EDGE_CURVE('',#424,#422,#204,.T.);
#517=EDGE_CURVE('',#425,#424,#205,.T.);
#518=EDGE_CURVE('',#426,#425,#206,.T.);
#519=EDGE_CURVE('',#427,#426,#207,.T.);
#520=EDGE_CURVE('',#423,#427,#208,.T.);
#521=EDGE_CURVE('',#384,#422,#209,.T.);
#522=EDGE_CURVE('',#385,#423,#210,.T.);
#523=EDGE_CURVE('',#386,#427,#211,.T.);
#524=EDGE_CURVE('',#387,#426,#212,.T.);
#525=EDGE_CURVE('',#388,#425,#213,.T.);
#526=EDGE_CURVE('',#383,#424,#214,.T.);
#527=EDGE_CURVE('',#428,#429,#215,.T.);
#528=EDGE_CURVE('',#430,#428,#216,.T.);
#529=EDGE_CURVE('',#431,#430,#217,.T.);
#530=EDGE_CURVE('',#432,#431,#218,.T.);
#531=EDGE_CURVE('',#433,#432,#219,.T.);
#532=EDGE_CURVE('',#429,#433,#220,.T.);
#533=EDGE_CURVE('',#390,#428,#221,.T.);
#534=EDGE_CURVE('',#391,#429,#222,.T.);
#535=EDGE_CURVE('',#392,#433,#223,.T.);
#536=EDGE_CURVE('',#393,#432,#224,.T.);
#537=EDGE_CURVE('',#394,#431,#225,.T.);
#538=EDGE_CURVE('',#389,#430,#226,.T.);
#539=EDGE_CURVE('',#434,#435,#227,.T.);
#540=EDGE_CURVE('',#436,#434,#228,.T.);
#541=EDGE_CURVE('',#437,#436,#229,.T.);
#542=EDGE_CURVE('',#438,#437,#230,.T.);
#543=EDGE_CURVE('',#439,#438,#231,.T.);
#544=EDGE_CURVE('',#435,#439,#232,.T.);
#545=EDGE_CURVE('',#396,#434,#233,.T.);
#546=EDGE_CURVE('',#397,#435,#234,.T.);
#547=EDGE_CURVE('',#398,#439,#235,.T.);
#548=EDGE_CURVE('',#399,#438,#236,.T.);
#549=EDGE_CURVE('',#400,#437,#237,.T.);
#550=EDGE_CURVE('',#395,#436,#238,.T.);
#551=EDGE_CURVE('',#440,#441,#239,.T.);
#552=EDGE_CURVE('',#442,#440,#240,.T.);
#553=EDGE_CURVE('',#443,#442,#241,.T.);
#554=EDGE_CURVE('',#444,#443,#242,.T.);
#555=EDGE_CURVE('',#445,#444,#243,.T.);
#556=EDGE_CURVE('',#441,#445,#244,.T.);
#557=EDGE_CURVE('',#402,#440,#245,.T.);
#558=EDGE_CURVE('',#403,#441,#246,.T.);
#559=EDGE_CURVE('',#404,#445,#247,.T.);
#560=EDGE_CURVE('',#405,#444,#248,.T.);
#561=EDGE_CURVE('',#406,#443,#249,.T.);
#562=EDGE_CURVE('',#401,#442,#250,.T.);
#563=EDGE_CURVE('',#367,#409,#251,.T.);
#564=EDGE_CURVE('',#411,#446,#252,.T.);
#565=EDGE_CURVE('',#446,#372,#253,.T.);
#566=EDGE_CURVE('',#380,#446,#254,.T.);
#567=ORIENTED_EDGE('',*,*,#447,.F.);
#568=ORIENTED_EDGE('',*,*,#448,.F.);
#569=ORIENTED_EDGE('',*,*,#449,.F.);
#570=ORIENTED_EDGE('',*,*,#450,.F.);
#571=ORIENTED_EDGE('',*,*,#451,.F.);
#572=ORIENTED_EDGE('',*,*,#452,.T.);
#573=ORIENTED_EDGE('',*,*,#453,.F.);
#574=ORIENTED_EDGE('',*,*,#454,.F.);
#575=ORIENTED_EDGE('',*,*,#455,.F.);
#576=ORIENTED_EDGE('',*,*,#450,.T.);
#577=ORIENTED_EDGE('',*,*,#456,.F.);
#578=ORIENTED_EDGE('',*,*,#452,.F.);
#579=ORIENTED_EDGE('',*,*,#453,.T.);
#580=ORIENTED_EDGE('',*,*,#456,.T.);
#581=ORIENTED_EDGE('',*,*,#449,.T.);
#582=ORIENTED_EDGE('',*,*,#457,.T.);
#583=ORIENTED_EDGE('',*,*,#458,.F.);
#584=ORIENTED_EDGE('',*,*,#459,.F.);
#585=ORIENTED_EDGE('',*,*,#460,.T.);
#586=ORIENTED_EDGE('',*,*,#461,.T.);
#587=ORIENTED_EDGE('',*,*,#462,.T.);
#588=ORIENTED_EDGE('',*,*,#463,.T.);
#589=ORIENTED_EDGE('',*,*,#464,.T.);
#590=ORIENTED_EDGE('',*,*,#465,.T.);
#591=ORIENTED_EDGE('',*,*,#466,.T.);
#592=ORIENTED_EDGE('',*,*,#467,.T.);
#593=ORIENTED_EDGE('',*,*,#468,.T.);
#594=ORIENTED_EDGE('',*,*,#469,.T.);
#595=ORIENTED_EDGE('',*,*,#470,.T.);
#596=ORIENTED_EDGE('',*,*,#471,.T.);
#597=ORIENTED_EDGE('',*,*,#472,.T.);
#598=ORIENTED_EDGE('',*,*,#473,.T.);
#599=ORIENTED_EDGE('',*,*,#474,.T.);
#600=ORIENTED_EDGE('',*,*,#475,.T.);
#601=ORIENTED_EDGE('',*,*,#476,.T.);
#602=ORIENTED_EDGE('',*,*,#477,.T.);
#603=ORIENTED_EDGE('',*,*,#478,.T.);
#604=ORIENTED_EDGE('',*,*,#479,.T.);
#605=ORIENTED_EDGE('',*,*,#480,.T.);
#606=ORIENTED_EDGE('',*,*,#481,.T.);
#607=ORIENTED_EDGE('',*,*,#482,.T.);
#608=ORIENTED_EDGE('',*,*,#483,.T.);
#609=ORIENTED_EDGE('',*,*,#484,.T.);
#610=ORIENTED_EDGE('',*,*,#485,.T.);
#611=ORIENTED_EDGE('',*,*,#486,.T.);
#612=ORIENTED_EDGE('',*,*,#487,.T.);
#613=ORIENTED_EDGE('',*,*,#488,.T.);
#614=ORIENTED_EDGE('',*,*,#489,.T.);
#615=ORIENTED_EDGE('',*,*,#459,.T.);
#616=ORIENTED_EDGE('',*,*,#490,.T.);
#617=ORIENTED_EDGE('',*,*,#491,.T.);
#618=ORIENTED_EDGE('',*,*,#492,.T.);
#619=ORIENTED_EDGE('',*,*,#493,.F.);
#620=ORIENTED_EDGE('',*,*,#494,.F.);
#621=ORIENTED_EDGE('',*,*,#465,.F.);
#622=ORIENTED_EDGE('',*,*,#495,.T.);
#623=ORIENTED_EDGE('',*,*,#496,.F.);
#624=ORIENTED_EDGE('',*,*,#495,.F.);
#625=ORIENTED_EDGE('',*,*,#464,.F.);
#626=ORIENTED_EDGE('',*,*,#497,.T.);
#627=ORIENTED_EDGE('',*,*,#498,.T.);
#628=ORIENTED_EDGE('',*,*,#460,.F.);
#629=ORIENTED_EDGE('',*,*,#492,.F.);
#630=ORIENTED_EDGE('',*,*,#499,.T.);
#631=ORIENTED_EDGE('',*,*,#500,.T.);
#632=ORIENTED_EDGE('',*,*,#499,.F.);
#633=ORIENTED_EDGE('',*,*,#491,.F.);
#634=ORIENTED_EDGE('',*,*,#501,.T.);
#635=ORIENTED_EDGE('',*,*,#502,.T.);
#636=ORIENTED_EDGE('',*,*,#501,.F.);
#637=ORIENTED_EDGE('',*,*,#490,.F.);
#638=ORIENTED_EDGE('',*,*,#458,.T.);
#639=ORIENTED_EDGE('',*,*,#503,.T.);
#640=ORIENTED_EDGE('',*,*,#504,.T.);
#641=ORIENTED_EDGE('',*,*,#505,.T.);
#642=ORIENTED_EDGE('',*,*,#504,.F.);
#643=ORIENTED_EDGE('',*,*,#506,.T.);
#644=ORIENTED_EDGE('',*,*,#507,.T.);
#645=ORIENTED_EDGE('',*,*,#508,.T.);
#646=ORIENTED_EDGE('',*,*,#507,.F.);
#647=ORIENTED_EDGE('',*,*,#509,.T.);
#648=ORIENTED_EDGE('',*,*,#510,.T.);
#649=ORIENTED_EDGE('',*,*,#511,.T.);
#650=ORIENTED_EDGE('',*,*,#510,.F.);
#651=ORIENTED_EDGE('',*,*,#512,.T.);
#652=ORIENTED_EDGE('',*,*,#513,.T.);
#653=ORIENTED_EDGE('',*,*,#514,.T.);
#654=ORIENTED_EDGE('',*,*,#513,.F.);
#655=ORIENTED_EDGE('',*,*,#515,.F.);
#656=ORIENTED_EDGE('',*,*,#516,.F.);
#657=ORIENTED_EDGE('',*,*,#517,.F.);
#658=ORIENTED_EDGE('',*,*,#518,.F.);
#659=ORIENTED_EDGE('',*,*,#519,.F.);
#660=ORIENTED_EDGE('',*,*,#520,.F.);
#661=ORIENTED_EDGE('',*,*,#514,.F.);
#662=ORIENTED_EDGE('',*,*,#467,.F.);
#663=ORIENTED_EDGE('',*,*,#521,.T.);
#664=ORIENTED_EDGE('',*,*,#515,.T.);
#665=ORIENTED_EDGE('',*,*,#522,.F.);
#666=ORIENTED_EDGE('',*,*,#468,.F.);
#667=ORIENTED_EDGE('',*,*,#522,.T.);
#668=ORIENTED_EDGE('',*,*,#520,.T.);
#669=ORIENTED_EDGE('',*,*,#523,.F.);
#670=ORIENTED_EDGE('',*,*,#469,.F.);
#671=ORIENTED_EDGE('',*,*,#523,.T.);
#672=ORIENTED_EDGE('',*,*,#519,.T.);
#673=ORIENTED_EDGE('',*,*,#524,.F.);
#674=ORIENTED_EDGE('',*,*,#470,.F.);
#675=ORIENTED_EDGE('',*,*,#524,.T.);
#676=ORIENTED_EDGE('',*,*,#518,.T.);
#677=ORIENTED_EDGE('',*,*,#525,.F.);
#678=ORIENTED_EDGE('',*,*,#471,.F.);
#679=ORIENTED_EDGE('',*,*,#525,.T.);
#680=ORIENTED_EDGE('',*,*,#517,.T.);
#681=ORIENTED_EDGE('',*,*,#526,.F.);
#682=ORIENTED_EDGE('',*,*,#466,.F.);
#683=ORIENTED_EDGE('',*,*,#526,.T.);
#684=ORIENTED_EDGE('',*,*,#516,.T.);
#685=ORIENTED_EDGE('',*,*,#521,.F.);
#686=ORIENTED_EDGE('',*,*,#527,.F.);
#687=ORIENTED_EDGE('',*,*,#528,.F.);
#688=ORIENTED_EDGE('',*,*,#529,.F.);
#689=ORIENTED_EDGE('',*,*,#530,.F.);
#690=ORIENTED_EDGE('',*,*,#531,.F.);
#691=ORIENTED_EDGE('',*,*,#532,.F.);
#692=ORIENTED_EDGE('',*,*,#511,.F.);
#693=ORIENTED_EDGE('',*,*,#473,.F.);
#694=ORIENTED_EDGE('',*,*,#533,.T.);
#695=ORIENTED_EDGE('',*,*,#527,.T.);
#696=ORIENTED_EDGE('',*,*,#534,.F.);
#697=ORIENTED_EDGE('',*,*,#474,.F.);
#698=ORIENTED_EDGE('',*,*,#534,.T.);
#699=ORIENTED_EDGE('',*,*,#532,.T.);
#700=ORIENTED_EDGE('',*,*,#535,.F.);
#701=ORIENTED_EDGE('',*,*,#475,.F.);
#702=ORIENTED_EDGE('',*,*,#535,.T.);
#703=ORIENTED_EDGE('',*,*,#531,.T.);
#704=ORIENTED_EDGE('',*,*,#536,.F.);
#705=ORIENTED_EDGE('',*,*,#476,.F.);
#706=ORIENTED_EDGE('',*,*,#536,.T.);
#707=ORIENTED_EDGE('',*,*,#530,.T.);
#708=ORIENTED_EDGE('',*,*,#537,.F.);
#709=ORIENTED_EDGE('',*,*,#477,.F.);
#710=ORIENTED_EDGE('',*,*,#537,.T.);
#711=ORIENTED_EDGE('',*,*,#529,.T.);
#712=ORIENTED_EDGE('',*,*,#538,.F.);
#713=ORIENTED_EDGE('',*,*,#472,.F.);
#714=ORIENTED_EDGE('',*,*,#538,.T.);
#715=ORIENTED_EDGE('',*,*,#528,.T.);
#716=ORIENTED_EDGE('',*,*,#533,.F.);
#717=ORIENTED_EDGE('',*,*,#539,.F.);
#718=ORIENTED_EDGE('',*,*,#540,.F.);
#719=ORIENTED_EDGE('',*,*,#541,.F.);
#720=ORIENTED_EDGE('',*,*,#542,.F.);
#721=ORIENTED_EDGE('',*,*,#543,.F.);
#722=ORIENTED_EDGE('',*,*,#544,.F.);
#723=ORIENTED_EDGE('',*,*,#508,.F.);
#724=ORIENTED_EDGE('',*,*,#479,.F.);
#725=ORIENTED_EDGE('',*,*,#545,.T.);
#726=ORIENTED_EDGE('',*,*,#539,.T.);
#727=ORIENTED_EDGE('',*,*,#546,.F.);
#728=ORIENTED_EDGE('',*,*,#480,.F.);
#729=ORIENTED_EDGE('',*,*,#546,.T.);
#730=ORIENTED_EDGE('',*,*,#544,.T.);
#731=ORIENTED_EDGE('',*,*,#547,.F.);
#732=ORIENTED_EDGE('',*,*,#481,.F.);
#733=ORIENTED_EDGE('',*,*,#547,.T.);
#734=ORIENTED_EDGE('',*,*,#543,.T.);
#735=ORIENTED_EDGE('',*,*,#548,.F.);
#736=ORIENTED_EDGE('',*,*,#482,.F.);
#737=ORIENTED_EDGE('',*,*,#548,.T.);
#738=ORIENTED_EDGE('',*,*,#542,.T.);
#739=ORIENTED_EDGE('',*,*,#549,.F.);
#740=ORIENTED_EDGE('',*,*,#483,.F.);
#741=ORIENTED_EDGE('',*,*,#549,.T.);
#742=ORIENTED_EDGE('',*,*,#541,.T.);
#743=ORIENTED_EDGE('',*,*,#550,.F.);
#744=ORIENTED_EDGE('',*,*,#478,.F.);
#745=ORIENTED_EDGE('',*,*,#550,.T.);
#746=ORIENTED_EDGE('',*,*,#540,.T.);
#747=ORIENTED_EDGE('',*,*,#545,.F.);
#748=ORIENTED_EDGE('',*,*,#551,.F.);
#749=ORIENTED_EDGE('',*,*,#552,.F.);
#750=ORIENTED_EDGE('',*,*,#553,.F.);
#751=ORIENTED_EDGE('',*,*,#554,.F.);
#752=ORIENTED_EDGE('',*,*,#555,.F.);
#753=ORIENTED_EDGE('',*,*,#556,.F.);
#754=ORIENTED_EDGE('',*,*,#505,.F.);
#755=ORIENTED_EDGE('',*,*,#485,.F.);
#756=ORIENTED_EDGE('',*,*,#557,.T.);
#757=ORIENTED_EDGE('',*,*,#551,.T.);
#758=ORIENTED_EDGE('',*,*,#558,.F.);
#759=ORIENTED_EDGE('',*,*,#486,.F.);
#760=ORIENTED_EDGE('',*,*,#558,.T.);
#761=ORIENTED_EDGE('',*,*,#556,.T.);
#762=ORIENTED_EDGE('',*,*,#559,.F.);
#763=ORIENTED_EDGE('',*,*,#487,.F.);
#764=ORIENTED_EDGE('',*,*,#559,.T.);
#765=ORIENTED_EDGE('',*,*,#555,.T.);
#766=ORIENTED_EDGE('',*,*,#560,.F.);
#767=ORIENTED_EDGE('',*,*,#488,.F.);
#768=ORIENTED_EDGE('',*,*,#560,.T.);
#769=ORIENTED_EDGE('',*,*,#554,.T.);
#770=ORIENTED_EDGE('',*,*,#561,.F.);
#771=ORIENTED_EDGE('',*,*,#489,.F.);
#772=ORIENTED_EDGE('',*,*,#561,.T.);
#773=ORIENTED_EDGE('',*,*,#553,.T.);
#774=ORIENTED_EDGE('',*,*,#562,.F.);
#775=ORIENTED_EDGE('',*,*,#484,.F.);
#776=ORIENTED_EDGE('',*,*,#562,.T.);
#777=ORIENTED_EDGE('',*,*,#552,.T.);
#778=ORIENTED_EDGE('',*,*,#557,.F.);
#779=ORIENTED_EDGE('',*,*,#454,.T.);
#780=ORIENTED_EDGE('',*,*,#461,.F.);
#781=ORIENTED_EDGE('',*,*,#498,.F.);
#782=ORIENTED_EDGE('',*,*,#500,.F.);
#783=ORIENTED_EDGE('',*,*,#502,.F.);
#784=ORIENTED_EDGE('',*,*,#457,.F.);
#785=ORIENTED_EDGE('',*,*,#448,.T.);
#786=ORIENTED_EDGE('',*,*,#563,.T.);
#787=ORIENTED_EDGE('',*,*,#493,.T.);
#788=ORIENTED_EDGE('',*,*,#496,.T.);
#789=ORIENTED_EDGE('',*,*,#564,.T.);
#790=ORIENTED_EDGE('',*,*,#565,.T.);
#791=ORIENTED_EDGE('',*,*,#503,.F.);
#792=ORIENTED_EDGE('',*,*,#509,.F.);
#793=ORIENTED_EDGE('',*,*,#512,.F.);
#794=ORIENTED_EDGE('',*,*,#506,.F.);
#795=ORIENTED_EDGE('',*,*,#564,.F.);
#796=ORIENTED_EDGE('',*,*,#497,.F.);
#797=ORIENTED_EDGE('',*,*,#463,.F.);
#798=ORIENTED_EDGE('',*,*,#566,.T.);
#799=ORIENTED_EDGE('',*,*,#451,.T.);
#800=ORIENTED_EDGE('',*,*,#565,.F.);
#801=ORIENTED_EDGE('',*,*,#566,.F.);
#802=ORIENTED_EDGE('',*,*,#462,.F.);
#803=ORIENTED_EDGE('',*,*,#494,.T.);
#804=ORIENTED_EDGE('',*,*,#563,.F.);
#805=ORIENTED_EDGE('',*,*,#447,.T.);
#806=ORIENTED_EDGE('',*,*,#455,.T.);
#807=PLANE('',#897);
#808=PLANE('',#898);
#809=PLANE('',#899);
#810=PLANE('',#900);
#811=PLANE('',#901);
#812=PLANE('',#902);
#813=PLANE('',#903);
#814=PLANE('',#904);
#815=PLANE('',#905);
#816=PLANE('',#906);
#817=PLANE('',#907);
#818=PLANE('',#920);
#819=PLANE('',#921);
#820=PLANE('',#922);
#821=PLANE('',#923);
#822=PLANE('',#924);
#823=PLANE('',#925);
#824=PLANE('',#926);
#825=PLANE('',#927);
#826=PLANE('',#928);
#827=PLANE('',#929);
#828=PLANE('',#930);
#829=PLANE('',#931);
#830=PLANE('',#932);
#831=PLANE('',#933);
#832=PLANE('',#934);
#833=PLANE('',#935);
#834=PLANE('',#936);
#835=PLANE('',#937);
#836=PLANE('',#938);
#837=PLANE('',#939);
#838=PLANE('',#940);
#839=PLANE('',#941);
#840=PLANE('',#942);
#841=PLANE('',#943);
#842=PLANE('',#944);
#843=PLANE('',#945);
#844=PLANE('',#946);
#845=PLANE('',#947);
#846=PLANE('',#948);
#847=PLANE('',#949);
#848=PLANE('',#950);
#849=ADVANCED_FACE('',(#39),#807,.F.);
#850=ADVANCED_FACE('',(#40),#808,.F.);
#851=ADVANCED_FACE('',(#41),#809,.F.);
#852=ADVANCED_FACE('',(#42),#810,.T.);
#853=ADVANCED_FACE('',(#43,#27,#28,#29,#30),#811,.F.);
#854=ADVANCED_FACE('',(#44),#812,.T.);
#855=ADVANCED_FACE('',(#45),#813,.T.);
#856=ADVANCED_FACE('',(#46),#814,.T.);
#857=ADVANCED_FACE('',(#47),#815,.T.);
#858=ADVANCED_FACE('',(#48),#816,.T.);
#859=ADVANCED_FACE('',(#49),#817,.T.);
#860=ADVANCED_FACE('',(#50),#23,.F.);
#861=ADVANCED_FACE('',(#51),#24,.F.);
#862=ADVANCED_FACE('',(#52),#25,.F.);
#863=ADVANCED_FACE('',(#53),#26,.F.);
#864=ADVANCED_FACE('',(#54,#31),#818,.F.);
#865=ADVANCED_FACE('',(#55),#819,.F.);
#866=ADVANCED_FACE('',(#56),#820,.F.);
#867=ADVANCED_FACE('',(#57),#821,.F.);
#868=ADVANCED_FACE('',(#58),#822,.F.);
#869=ADVANCED_FACE('',(#59),#823,.F.);
#870=ADVANCED_FACE('',(#60),#824,.F.);
#871=ADVANCED_FACE('',(#61,#32),#825,.F.);
#872=ADVANCED_FACE('',(#62),#826,.F.);
#873=ADVANCED_FACE('',(#63),#827,.F.);
#874=ADVANCED_FACE('',(#64),#828,.F.);
#875=ADVANCED_FACE('',(#65),#829,.F.);
#876=ADVANCED_FACE('',(#66),#830,.F.);
#877=ADVANCED_FACE('',(#67),#831,.F.);
#878=ADVANCED_FACE('',(#68,#33),#832,.F.);
#879=ADVANCED_FACE('',(#69),#833,.F.);
#880=ADVANCED_FACE('',(#70),#834,.F.);
#881=ADVANCED_FACE('',(#71),#835,.F.);
#882=ADVANCED_FACE('',(#72),#836,.F.);
#883=ADVANCED_FACE('',(#73),#837,.F.);
#884=ADVANCED_FACE('',(#74),#838,.F.);
#885=ADVANCED_FACE('',(#75,#34),#839,.F.);
#886=ADVANCED_FACE('',(#76),#840,.F.);
#887=ADVANCED_FACE('',(#77),#841,.F.);
#888=ADVANCED_FACE('',(#78),#842,.F.);
#889=ADVANCED_FACE('',(#79),#843,.F.);
#890=ADVANCED_FACE('',(#80),#844,.F.);
#891=ADVANCED_FACE('',(#81),#845,.F.);
#892=ADVANCED_FACE('',(#82,#35,#36,#37,#38),#846,.T.);
#893=ADVANCED_FACE('',(#83),#847,.T.);
#894=ADVANCED_FACE('',(#84),#848,.T.);
#895=CLOSED_SHELL('',(#849,#850,#851,#852,#853,#854,#855,#856,#857,#858,
#859,#860,#861,#862,#863,#864,#865,#866,#867,#868,#869,#870,#871,#872,#873,
#874,#875,#876,#877,#878,#879,#880,#881,#882,#883,#884,#885,#886,#887,#888,
#889,#890,#891,#892,#893,#894));
#896=AXIS2_PLACEMENT_3D('',#1173,#951,#952);
#897=AXIS2_PLACEMENT_3D('',#1174,#953,#954);
#898=AXIS2_PLACEMENT_3D('',#1183,#959,#960);
#899=AXIS2_PLACEMENT_3D('',#1192,#965,#966);
#900=AXIS2_PLACEMENT_3D('',#1195,#969,#970);
#901=AXIS2_PLACEMENT_3D('',#1205,#976,#977);
#902=AXIS2_PLACEMENT_3D('',#1262,#1006,#1007);
#903=AXIS2_PLACEMENT_3D('',#1268,#1011,#1012);
#904=AXIS2_PLACEMENT_3D('',#1274,#1016,#1017);
#905=AXIS2_PLACEMENT_3D('',#1278,#1020,#1021);
#906=AXIS2_PLACEMENT_3D('',#1282,#1024,#1025);
#907=AXIS2_PLACEMENT_3D('',#1286,#1028,#1029);
#908=AXIS2_PLACEMENT_3D('',#1288,#1031,#1032);
#909=AXIS2_PLACEMENT_3D('',#1290,#1033,#1034);
#910=AXIS2_PLACEMENT_3D('',#1293,#1036,#1037);
#911=AXIS2_PLACEMENT_3D('',#1294,#1038,#1039);
#912=AXIS2_PLACEMENT_3D('',#1296,#1040,#1041);
#913=AXIS2_PLACEMENT_3D('',#1299,#1043,#1044);
#914=AXIS2_PLACEMENT_3D('',#1300,#1045,#1046);
#915=AXIS2_PLACEMENT_3D('',#1302,#1047,#1048);
#916=AXIS2_PLACEMENT_3D('',#1305,#1050,#1051);
#917=AXIS2_PLACEMENT_3D('',#1306,#1052,#1053);
#918=AXIS2_PLACEMENT_3D('',#1308,#1054,#1055);
#919=AXIS2_PLACEMENT_3D('',#1311,#1057,#1058);
#920=AXIS2_PLACEMENT_3D('',#1312,#1059,#1060);
#921=AXIS2_PLACEMENT_3D('',#1325,#1067,#1068);
#922=AXIS2_PLACEMENT_3D('',#1328,#1071,#1072);
#923=AXIS2_PLACEMENT_3D('',#1330,#1074,#1075);
#924=AXIS2_PLACEMENT_3D('',#1332,#1077,#1078);
#925=AXIS2_PLACEMENT_3D('',#1334,#1080,#1081);
#926=AXIS2_PLACEMENT_3D('',#1336,#1083,#1084);
#927=AXIS2_PLACEMENT_3D('',#1337,#1085,#1086);
#928=AXIS2_PLACEMENT_3D('',#1350,#1093,#1094);
#929=AXIS2_PLACEMENT_3D('',#1353,#1097,#1098);
#930=AXIS2_PLACEMENT_3D('',#1355,#1100,#1101);
#931=AXIS2_PLACEMENT_3D('',#1357,#1103,#1104);
#932=AXIS2_PLACEMENT_3D('',#1359,#1106,#1107);
#933=AXIS2_PLACEMENT_3D('',#1361,#1109,#1110);
#934=AXIS2_PLACEMENT_3D('',#1362,#1111,#1112);
#935=AXIS2_PLACEMENT_3D('',#1375,#1119,#1120);
#936=AXIS2_PLACEMENT_3D('',#1378,#1123,#1124);
#937=AXIS2_PLACEMENT_3D('',#1380,#1126,#1127);
#938=AXIS2_PLACEMENT_3D('',#1382,#1129,#1130);
#939=AXIS2_PLACEMENT_3D('',#1384,#1132,#1133);
#940=AXIS2_PLACEMENT_3D('',#1386,#1135,#1136);
#941=AXIS2_PLACEMENT_3D('',#1387,#1137,#1138);
#942=AXIS2_PLACEMENT_3D('',#1400,#1145,#1146);
#943=AXIS2_PLACEMENT_3D('',#1403,#1149,#1150);
#944=AXIS2_PLACEMENT_3D('',#1405,#1152,#1153);
#945=AXIS2_PLACEMENT_3D('',#1407,#1155,#1156);
#946=AXIS2_PLACEMENT_3D('',#1409,#1158,#1159);
#947=AXIS2_PLACEMENT_3D('',#1411,#1161,#1162);
#948=AXIS2_PLACEMENT_3D('',#1412,#1163,#1164);
#949=AXIS2_PLACEMENT_3D('',#1417,#1168,#1169);
#950=AXIS2_PLACEMENT_3D('',#1419,#1171,#1172);
#951=DIRECTION('axis',(0.,0.,1.));
#952=DIRECTION('refdir',(1.,0.,0.));
#953=DIRECTION('center_axis',(-1.,0.,0.));
#954=DIRECTION('ref_axis',(0.,0.,-1.));
#955=DIRECTION('',(0.,0.,-1.));
#956=DIRECTION('',(0.,1.,0.));
#957=DIRECTION('',(0.,0.,1.));
#958=DIRECTION('',(0.,-1.,0.));
#959=DIRECTION('center_axis',(1.,0.,0.));
#960=DIRECTION('ref_axis',(0.,0.,1.));
#961=DIRECTION('',(0.,0.,1.));
#962=DIRECTION('',(0.,-1.,0.));
#963=DIRECTION('',(0.,0.,-1.));
#964=DIRECTION('',(0.,-1.,0.));
#965=DIRECTION('center_axis',(0.,0.,-1.));
#966=DIRECTION('ref_axis',(1.,0.,0.));
#967=DIRECTION('',(1.,-6.06679248429053E-17,0.));
#968=DIRECTION('',(-1.,7.02672800395669E-17,0.));
#969=DIRECTION('center_axis',(-7.02672800395669E-17,-1.,0.));
#970=DIRECTION('ref_axis',(1.,-7.02672800395669E-17,0.));
#971=DIRECTION('',(-1.,7.02672800395669E-17,0.));
#972=DIRECTION('',(0.,0.,1.));
#973=DIRECTION('',(-1.,7.02672800395669E-17,0.));
#974=DIRECTION('',(0.,0.,1.));
#975=DIRECTION('',(-1.,7.02672800395669E-17,0.));
#976=DIRECTION('center_axis',(0.,0.,1.));
#977=DIRECTION('ref_axis',(1.,0.,0.));
#978=DIRECTION('',(1.,-6.06679248429053E-17,0.));
#979=DIRECTION('',(6.83214169000103E-17,-1.,0.));
#980=DIRECTION('',(-1.,0.,0.));
#981=DIRECTION('',(0.,1.,0.));
#982=DIRECTION('',(-0.500000000000005,-0.866025403784436,0.));
#983=DIRECTION('',(0.499999999999995,-0.866025403784442,0.));
#984=DIRECTION('',(1.,-2.1976716415812E-15,0.));
#985=DIRECTION('',(0.500000000000002,0.866025403784437,0.));
#986=DIRECTION('',(-0.499999999999996,0.866025403784441,0.));
#987=DIRECTION('',(-1.,4.39534328316242E-15,0.));
#988=DIRECTION('',(0.500000000000005,0.866025403784436,0.));
#989=DIRECTION('',(-0.499999999999999,0.866025403784439,0.));
#990=DIRECTION('',(-1.,0.,0.));
#991=DIRECTION('',(-0.500000000000002,-0.866025403784437,0.));
#992=DIRECTION('',(0.5,-0.866025403784439,0.));
#993=DIRECTION('',(1.,0.,0.));
#994=DIRECTION('',(0.499999999999998,0.86602540378444,0.));
#995=DIRECTION('',(-0.500000000000001,0.866025403784438,0.));
#996=DIRECTION('',(-1.,-2.19767164158121E-15,0.));
#997=DIRECTION('',(-0.5,-0.866025403784439,0.));
#998=DIRECTION('',(0.500000000000003,-0.866025403784437,0.));
#999=DIRECTION('',(1.,0.,0.));
#1000=DIRECTION('',(-1.,0.,0.));
#1001=DIRECTION('',(-0.499999999999998,-0.86602540378444,0.));
#1002=DIRECTION('',(0.500000000000002,-0.866025403784437,0.));
#1003=DIRECTION('',(1.,0.,0.));
#1004=DIRECTION('',(0.499999999999998,0.86602540378444,0.));
#1005=DIRECTION('',(-0.500000000000002,0.866025403784437,0.));
#1006=DIRECTION('center_axis',(0.,0.,1.));
#1007=DIRECTION('ref_axis',(1.,0.,0.));
#1008=DIRECTION('',(0.,-1.,0.));
#1009=DIRECTION('',(1.,0.,0.));
#1010=DIRECTION('',(0.,1.,0.));
#1011=DIRECTION('center_axis',(-1.,0.,0.));
#1012=DIRECTION('ref_axis',(0.,-1.,0.));
#1013=DIRECTION('',(0.,-1.,0.));
#1014=DIRECTION('',(0.,0.,1.));
#1015=DIRECTION('',(0.,0.,1.));
#1016=DIRECTION('center_axis',(0.,-1.,0.));
#1017=DIRECTION('ref_axis',(1.,0.,0.));
#1018=DIRECTION('',(1.,0.,0.));
#1019=DIRECTION('',(0.,0.,1.));
#1020=DIRECTION('center_axis',(-1.,0.,0.));
#1021=DIRECTION('ref_axis',(0.,-1.,0.));
#1022=DIRECTION('',(0.,1.,0.));
#1023=DIRECTION('',(0.,0.,1.));
#1024=DIRECTION('center_axis',(0.,1.,0.));
#1025=DIRECTION('ref_axis',(-1.,0.,0.));
#1026=DIRECTION('',(1.,0.,0.));
#1027=DIRECTION('',(0.,0.,1.));
#1028=DIRECTION('center_axis',(1.,0.,0.));
#1029=DIRECTION('ref_axis',(0.,1.,0.));
#1030=DIRECTION('',(0.,-1.,0.));
#1031=DIRECTION('center_axis',(0.,0.,-1.));
#1032=DIRECTION('ref_axis',(-1.,0.,0.));
#1033=DIRECTION('center_axis',(0.,0.,1.));
#1034=DIRECTION('ref_axis',(-1.,0.,0.));
#1035=DIRECTION('',(0.,0.,-1.));
#1036=DIRECTION('center_axis',(0.,0.,-1.));
#1037=DIRECTION('ref_axis',(-1.,0.,0.));
#1038=DIRECTION('center_axis',(0.,0.,-1.));
#1039=DIRECTION('ref_axis',(-1.,0.,0.));
#1040=DIRECTION('center_axis',(0.,0.,1.));
#1041=DIRECTION('ref_axis',(-1.,0.,0.));
#1042=DIRECTION('',(0.,0.,-1.));
#1043=DIRECTION('center_axis',(0.,0.,-1.));
#1044=DIRECTION('ref_axis',(-1.,0.,0.));
#1045=DIRECTION('center_axis',(0.,0.,-1.));
#1046=DIRECTION('ref_axis',(-1.,0.,0.));
#1047=DIRECTION('center_axis',(0.,0.,1.));
#1048=DIRECTION('ref_axis',(-1.,0.,0.));
#1049=DIRECTION('',(0.,0.,-1.));
#1050=DIRECTION('center_axis',(0.,0.,-1.));
#1051=DIRECTION('ref_axis',(-1.,0.,0.));
#1052=DIRECTION('center_axis',(0.,0.,-1.));
#1053=DIRECTION('ref_axis',(-1.,0.,0.));
#1054=DIRECTION('center_axis',(0.,0.,1.));
#1055=DIRECTION('ref_axis',(-1.,0.,0.));
#1056=DIRECTION('',(0.,0.,-1.));
#1057=DIRECTION('center_axis',(0.,0.,-1.));
#1058=DIRECTION('ref_axis',(-1.,0.,0.));
#1059=DIRECTION('center_axis',(0.,0.,1.));
#1060=DIRECTION('ref_axis',(1.,0.,0.));
#1061=DIRECTION('',(0.499999999999995,-0.866025403784442,0.));
#1062=DIRECTION('',(-0.500000000000005,-0.866025403784436,0.));
#1063=DIRECTION('',(-1.,4.39534328316242E-15,0.));
#1064=DIRECTION('',(-0.499999999999996,0.866025403784441,0.));
#1065=DIRECTION('',(0.500000000000002,0.866025403784437,0.));
#1066=DIRECTION('',(1.,-2.1976716415812E-15,0.));
#1067=DIRECTION('center_axis',(-0.866025403784442,-0.499999999999995,0.));
#1068=DIRECTION('ref_axis',(0.499999999999995,-0.866025403784442,0.));
#1069=DIRECTION('',(0.,0.,1.));
#1070=DIRECTION('',(0.,0.,1.));
#1071=DIRECTION('center_axis',(-2.1976716415812E-15,-1.,0.));
#1072=DIRECTION('ref_axis',(1.,-2.1976716415812E-15,0.));
#1073=DIRECTION('',(0.,0.,1.));
#1074=DIRECTION('center_axis',(0.866025403784437,-0.500000000000002,0.));
#1075=DIRECTION('ref_axis',(0.500000000000002,0.866025403784437,0.));
#1076=DIRECTION('',(0.,0.,1.));
#1077=DIRECTION('center_axis',(0.866025403784441,0.499999999999996,0.));
#1078=DIRECTION('ref_axis',(-0.499999999999996,0.866025403784441,0.));
#1079=DIRECTION('',(0.,0.,1.));
#1080=DIRECTION('center_axis',(4.39534328316242E-15,1.,0.));
#1081=DIRECTION('ref_axis',(-1.,4.39534328316242E-15,0.));
#1082=DIRECTION('',(0.,0.,1.));
#1083=DIRECTION('center_axis',(-0.866025403784436,0.500000000000005,0.));
#1084=DIRECTION('ref_axis',(-0.500000000000005,-0.866025403784436,0.));
#1085=DIRECTION('center_axis',(0.,0.,1.));
#1086=DIRECTION('ref_axis',(1.,0.,0.));
#1087=DIRECTION('',(-0.499999999999999,0.866025403784439,0.));
#1088=DIRECTION('',(0.500000000000004,0.866025403784436,0.));
#1089=DIRECTION('',(1.,0.,0.));
#1090=DIRECTION('',(0.5,-0.866025403784438,0.));
#1091=DIRECTION('',(-0.500000000000002,-0.866025403784437,0.));
#1092=DIRECTION('',(-1.,0.,0.));
#1093=DIRECTION('center_axis',(0.866025403784439,0.499999999999999,0.));
#1094=DIRECTION('ref_axis',(-0.499999999999999,0.866025403784439,0.));
#1095=DIRECTION('',(0.,0.,1.));
#1096=DIRECTION('',(0.,0.,1.));
#1097=DIRECTION('center_axis',(0.,1.,0.));
#1098=DIRECTION('ref_axis',(-1.,0.,0.));
#1099=DIRECTION('',(0.,0.,1.));
#1100=DIRECTION('center_axis',(-0.866025403784438,0.500000000000002,0.));
#1101=DIRECTION('ref_axis',(-0.500000000000002,-0.866025403784437,0.));
#1102=DIRECTION('',(0.,0.,1.));
#1103=DIRECTION('center_axis',(-0.866025403784439,-0.5,0.));
#1104=DIRECTION('ref_axis',(0.5,-0.866025403784439,0.));
#1105=DIRECTION('',(0.,0.,1.));
#1106=DIRECTION('center_axis',(0.,-1.,0.));
#1107=DIRECTION('ref_axis',(1.,0.,0.));
#1108=DIRECTION('',(0.,0.,1.));
#1109=DIRECTION('center_axis',(0.866025403784436,-0.500000000000005,0.));
#1110=DIRECTION('ref_axis',(0.500000000000005,0.866025403784436,0.));
#1111=DIRECTION('center_axis',(0.,0.,1.));
#1112=DIRECTION('ref_axis',(1.,0.,0.));
#1113=DIRECTION('',(-0.500000000000001,0.866025403784438,0.));
#1114=DIRECTION('',(0.499999999999998,0.86602540378444,0.));
#1115=DIRECTION('',(1.,0.,0.));
#1116=DIRECTION('',(0.500000000000003,-0.866025403784437,0.));
#1117=DIRECTION('',(-0.5,-0.866025403784439,0.));
#1118=DIRECTION('',(-1.,-2.19767164158121E-15,0.));
#1119=DIRECTION('center_axis',(0.866025403784438,0.500000000000001,0.));
#1120=DIRECTION('ref_axis',(-0.500000000000001,0.866025403784438,0.));
#1121=DIRECTION('',(0.,0.,1.));
#1122=DIRECTION('',(0.,0.,1.));
#1123=DIRECTION('center_axis',(-2.19767164158121E-15,1.,0.));
#1124=DIRECTION('ref_axis',(-1.,-2.19767164158121E-15,0.));
#1125=DIRECTION('',(0.,0.,1.));
#1126=DIRECTION('center_axis',(-0.866025403784439,0.5,0.));
#1127=DIRECTION('ref_axis',(-0.5,-0.866025403784439,0.));
#1128=DIRECTION('',(0.,0.,1.));
#1129=DIRECTION('center_axis',(-0.866025403784437,-0.500000000000003,0.));
#1130=DIRECTION('ref_axis',(0.500000000000003,-0.866025403784437,0.));
#1131=DIRECTION('',(0.,0.,1.));
#1132=DIRECTION('center_axis',(0.,-1.,0.));
#1133=DIRECTION('ref_axis',(1.,0.,0.));
#1134=DIRECTION('',(0.,0.,1.));
#1135=DIRECTION('center_axis',(0.86602540378444,-0.499999999999998,0.));
#1136=DIRECTION('ref_axis',(0.499999999999998,0.86602540378444,0.));
#1137=DIRECTION('center_axis',(0.,0.,1.));
#1138=DIRECTION('ref_axis',(1.,0.,0.));
#1139=DIRECTION('',(-0.499999999999998,-0.86602540378444,0.));
#1140=DIRECTION('',(-1.,0.,0.));
#1141=DIRECTION('',(-0.500000000000002,0.866025403784437,0.));
#1142=DIRECTION('',(0.499999999999998,0.86602540378444,0.));
#1143=DIRECTION('',(1.,0.,0.));
#1144=DIRECTION('',(0.500000000000002,-0.866025403784437,0.));
#1145=DIRECTION('center_axis',(-0.86602540378444,0.499999999999998,0.));
#1146=DIRECTION('ref_axis',(-0.499999999999998,-0.86602540378444,0.));
#1147=DIRECTION('',(0.,0.,1.));
#1148=DIRECTION('',(0.,0.,1.));
#1149=DIRECTION('center_axis',(-0.866025403784438,-0.500000000000002,0.));
#1150=DIRECTION('ref_axis',(0.500000000000002,-0.866025403784437,0.));
#1151=DIRECTION('',(0.,0.,1.));
#1152=DIRECTION('center_axis',(0.,-1.,0.));
#1153=DIRECTION('ref_axis',(1.,0.,0.));
#1154=DIRECTION('',(0.,0.,1.));
#1155=DIRECTION('center_axis',(0.86602540378444,-0.499999999999998,0.));
#1156=DIRECTION('ref_axis',(0.499999999999998,0.86602540378444,0.));
#1157=DIRECTION('',(0.,0.,1.));
#1158=DIRECTION('center_axis',(0.866025403784438,0.500000000000002,0.));
#1159=DIRECTION('ref_axis',(-0.500000000000002,0.866025403784437,0.));
#1160=DIRECTION('',(0.,0.,1.));
#1161=DIRECTION('center_axis',(0.,1.,0.));
#1162=DIRECTION('ref_axis',(-1.,0.,0.));
#1163=DIRECTION('center_axis',(0.,0.,1.));
#1164=DIRECTION('ref_axis',(-1.,0.,0.));
#1165=DIRECTION('',(-1.,6.06679248429053E-17,0.));
#1166=DIRECTION('',(-6.83214169000103E-17,1.,0.));
#1167=DIRECTION('',(-1.,6.06679248429053E-17,0.));
#1168=DIRECTION('center_axis',(1.,6.83214169000103E-17,0.));
#1169=DIRECTION('ref_axis',(-6.83214169000103E-17,1.,0.));
#1170=DIRECTION('',(0.,0.,1.));
#1171=DIRECTION('center_axis',(6.06679248429053E-17,1.,0.));
#1172=DIRECTION('ref_axis',(-1.,6.06679248429053E-17,0.));
#1173=CARTESIAN_POINT('',(0.,0.,0.));
#1174=CARTESIAN_POINT('Origin',(-53.1999999999986,64.9999999999987,8.));
#1175=CARTESIAN_POINT('',(-53.1999999999986,64.9999999999987,8.));
#1176=CARTESIAN_POINT('',(-53.1999999999986,64.9999999999987,0.));
#1177=CARTESIAN_POINT('',(-53.1999999999986,64.9999999999987,-1.));
#1178=CARTESIAN_POINT('',(-53.1999999999986,54.9999999999987,8.));
#1179=CARTESIAN_POINT('',(-53.1999999999986,2.99999999999935,8.));
#1180=CARTESIAN_POINT('',(-53.1999999999986,54.9999999999987,0.));
#1181=CARTESIAN_POINT('',(-53.1999999999986,55.,-1.));
#1182=CARTESIAN_POINT('',(-53.1999999999986,64.9999999999987,0.));
#1183=CARTESIAN_POINT('Origin',(-41.1999999999986,64.9999999999987,0.));
#1184=CARTESIAN_POINT('',(-41.1999999999986,64.9999999999987,0.));
#1185=CARTESIAN_POINT('',(-41.1999999999986,64.9999999999987,8.));
#1186=CARTESIAN_POINT('',(-41.1999999999986,64.9999999999987,-5.));
#1187=CARTESIAN_POINT('',(-41.1999999999986,54.9999999999987,0.));
#1188=CARTESIAN_POINT('',(-41.1999999999986,64.9999999999987,0.));
#1189=CARTESIAN_POINT('',(-41.1999999999986,54.9999999999987,8.));
#1190=CARTESIAN_POINT('',(-41.1999999999986,55.,-5.));
#1191=CARTESIAN_POINT('',(-41.1999999999986,2.99999999999935,8.));
#1192=CARTESIAN_POINT('Origin',(-53.1999999999986,64.9999999999987,0.));
#1193=CARTESIAN_POINT('',(10.0000000000007,64.9999999999987,0.));
#1194=CARTESIAN_POINT('',(-58.1999999999993,55.,0.));
#1195=CARTESIAN_POINT('Origin',(-63.2,55.,-10.));
#1196=CARTESIAN_POINT('',(-63.2,55.,8.));
#1197=CARTESIAN_POINT('',(-31.6,55.,8.));
#1198=CARTESIAN_POINT('',(-63.2,55.,-4.));
#1199=CARTESIAN_POINT('',(-63.2,55.,-10.));
#1200=CARTESIAN_POINT('',(63.2,55.,-4.));
#1201=CARTESIAN_POINT('',(-31.5999999999996,55.,-4.));
#1202=CARTESIAN_POINT('',(63.2,55.,8.));
#1203=CARTESIAN_POINT('',(63.2,55.,-10.));
#1204=CARTESIAN_POINT('',(-31.6,55.,8.));
#1205=CARTESIAN_POINT('Origin',(7.105427357601E-13,-6.3948846218409E-13,
-10.));
#1206=CARTESIAN_POINT('',(-73.1999999999986,64.9999999999987,-10.));
#1207=CARTESIAN_POINT('',(73.2,64.9999999999987,-10.));
#1208=CARTESIAN_POINT('',(-73.1999999999986,64.9999999999987,-10.));
#1209=CARTESIAN_POINT('',(73.2,-65.,-10.));
#1210=CARTESIAN_POINT('',(73.2,64.9999999999987,-10.));
#1211=CARTESIAN_POINT('',(-73.1999999999986,-65.,-10.));
#1212=CARTESIAN_POINT('',(73.2,-65.,-10.));
#1213=CARTESIAN_POINT('',(-73.1999999999986,-65.,-10.));
#1214=CARTESIAN_POINT('',(-69.2207259421623,-55.5,-10.));
#1215=CARTESIAN_POINT('',(-71.241451884326,-59.,-10.));
#1216=CARTESIAN_POINT('',(-48.5520327218827,-19.7007732164218,-10.));
#1217=CARTESIAN_POINT('',(-69.2207259421623,-62.5,-10.));
#1218=CARTESIAN_POINT('',(-75.1101451046056,-52.2992267835784,-10.));
#1219=CARTESIAN_POINT('',(-65.1792740578349,-62.5,-10.));
#1220=CARTESIAN_POINT('',(-34.6103629710809,-62.5000000000001,-10.));
#1221=CARTESIAN_POINT('',(-63.1585481156712,-59.,-10.));
#1222=CARTESIAN_POINT('',(-43.5002178664736,-24.9507732164219,-10.));
#1223=CARTESIAN_POINT('',(-65.1792740578349,-55.5,-10.));
#1224=CARTESIAN_POINT('',(-68.0376043070326,-50.5492267835785,-10.));
#1225=CARTESIAN_POINT('',(-32.5896370289172,-55.5000000000001,-10.));
#1226=CARTESIAN_POINT('',(-65.1792740578349,55.4999999999987,-10.));
#1227=CARTESIAN_POINT('',(-63.1585481156712,58.9999999999987,-10.));
#1228=CARTESIAN_POINT('',(-69.0479672781144,48.7992267835776,-10.));
#1229=CARTESIAN_POINT('',(-65.1792740578349,62.4999999999987,-10.));
#1230=CARTESIAN_POINT('',(-42.4898548953919,23.2007732164205,-10.));
#1231=CARTESIAN_POINT('',(-69.2207259421623,62.4999999999987,-10.));
#1232=CARTESIAN_POINT('',(-32.5896370289171,62.4999999999987,-10.));
#1233=CARTESIAN_POINT('',(-71.241451884326,58.9999999999987,-10.));
#1234=CARTESIAN_POINT('',(-74.0997821335236,54.0492267835775,-10.));
#1235=CARTESIAN_POINT('',(-69.2207259421623,55.4999999999987,-10.));
#1236=CARTESIAN_POINT('',(-49.5623956929648,21.4507732164205,-10.));
#1237=CARTESIAN_POINT('',(-34.6103629710808,55.4999999999987,-10.));
#1238=CARTESIAN_POINT('',(69.2207259421637,-62.5,-10.));
#1239=CARTESIAN_POINT('',(71.2414518843274,-59.,-10.));
#1240=CARTESIAN_POINT('',(74.0997821335251,-54.0492267835786,-10.));
#1241=CARTESIAN_POINT('',(69.2207259421637,-55.5,-10.));
#1242=CARTESIAN_POINT('',(49.5623956929662,-21.4507732164218,-10.));
#1243=CARTESIAN_POINT('',(65.1792740578363,-55.5,-10.));
#1244=CARTESIAN_POINT('',(34.6103629710823,-55.5000000000001,-10.));
#1245=CARTESIAN_POINT('',(63.1585481156726,-59.,-10.));
#1246=CARTESIAN_POINT('',(69.0479672781158,-48.7992267835787,-10.));
#1247=CARTESIAN_POINT('',(65.1792740578363,-62.5,-10.));
#1248=CARTESIAN_POINT('',(42.4898548953931,-23.2007732164219,-10.));
#1249=CARTESIAN_POINT('',(32.5896370289185,-62.5,-10.));
#1250=CARTESIAN_POINT('',(69.2207259421637,62.4999999999987,-10.));
#1251=CARTESIAN_POINT('',(65.1792740578363,62.4999999999987,-10.));
#1252=CARTESIAN_POINT('',(34.6103629710822,62.4999999999987,-10.));
#1253=CARTESIAN_POINT('',(63.1585481156726,58.9999999999987,-10.));
#1254=CARTESIAN_POINT('',(43.5002178664752,24.9507732164205,-10.));
#1255=CARTESIAN_POINT('',(65.1792740578363,55.4999999999987,-10.));
#1256=CARTESIAN_POINT('',(68.0376043070339,50.5492267835775,-10.));
#1257=CARTESIAN_POINT('',(69.2207259421637,55.4999999999987,-10.));
#1258=CARTESIAN_POINT('',(32.5896370289185,55.4999999999987,-10.));
#1259=CARTESIAN_POINT('',(71.2414518843274,58.9999999999987,-10.));
#1260=CARTESIAN_POINT('',(48.5520327218845,19.7007732164205,-10.));
#1261=CARTESIAN_POINT('',(75.1101451046068,52.2992267835775,-10.));
#1262=CARTESIAN_POINT('Origin',(7.105427357601E-13,-6.3948846218409E-13,
-4.));
#1263=CARTESIAN_POINT('',(-63.2,-55.,-4.));
#1264=CARTESIAN_POINT('',(-63.2,-27.5000000000003,-4.));
#1265=CARTESIAN_POINT('',(63.2,-55.,-4.));
#1266=CARTESIAN_POINT('',(31.6000000000004,-55.,-4.));
#1267=CARTESIAN_POINT('',(63.2,27.4999999999997,-4.));
#1268=CARTESIAN_POINT('Origin',(-73.1999999999986,64.9999999999987,-10.));
#1269=CARTESIAN_POINT('',(-73.1999999999986,64.9999999999987,8.));
#1270=CARTESIAN_POINT('',(-73.1999999999986,-65.,8.));
#1271=CARTESIAN_POINT('',(-73.1999999999986,32.499999999999,8.));
#1272=CARTESIAN_POINT('',(-73.1999999999986,64.9999999999987,-10.));
#1273=CARTESIAN_POINT('',(-73.1999999999986,-65.,-10.));
#1274=CARTESIAN_POINT('Origin',(-73.1999999999986,-65.,-10.));
#1275=CARTESIAN_POINT('',(73.2,-65.,8.));
#1276=CARTESIAN_POINT('',(-36.5999999999989,-65.,8.));
#1277=CARTESIAN_POINT('',(73.2,-65.,-10.));
#1278=CARTESIAN_POINT('Origin',(63.2,55.,-10.));
#1279=CARTESIAN_POINT('',(63.2,-55.,8.));
#1280=CARTESIAN_POINT('',(63.2,27.5,8.));
#1281=CARTESIAN_POINT('',(63.2,-55.,-10.));
#1282=CARTESIAN_POINT('Origin',(63.2,-55.,-10.));
#1283=CARTESIAN_POINT('',(-63.2,-55.,8.));
#1284=CARTESIAN_POINT('',(31.6,-55.,8.));
#1285=CARTESIAN_POINT('',(-63.2,-55.,-10.));
#1286=CARTESIAN_POINT('Origin',(-63.2,-55.,-10.));
#1287=CARTESIAN_POINT('',(-63.2,-27.5,8.));
#1288=CARTESIAN_POINT('Origin',(67.2,58.9999999999987,14.));
#1289=CARTESIAN_POINT('',(69.3,58.9999999999987,8.));
#1290=CARTESIAN_POINT('Origin',(67.2,58.9999999999987,8.));
#1291=CARTESIAN_POINT('',(69.3,58.9999999999987,-4.));
#1292=CARTESIAN_POINT('',(69.3,58.9999999999987,14.));
#1293=CARTESIAN_POINT('Origin',(67.2,58.9999999999987,-4.));
#1294=CARTESIAN_POINT('Origin',(67.2,-59.,14.));
#1295=CARTESIAN_POINT('',(69.3,-59.,8.));
#1296=CARTESIAN_POINT('Origin',(67.2,-59.,8.));
#1297=CARTESIAN_POINT('',(69.3,-59.,-4.));
#1298=CARTESIAN_POINT('',(69.3,-59.,14.));
#1299=CARTESIAN_POINT('Origin',(67.2,-59.,-4.));
#1300=CARTESIAN_POINT('Origin',(-67.1999999999986,58.9999999999987,14.));
#1301=CARTESIAN_POINT('',(-65.0999999999986,58.9999999999987,8.));
#1302=CARTESIAN_POINT('Origin',(-67.1999999999986,58.9999999999987,8.));
#1303=CARTESIAN_POINT('',(-65.0999999999986,58.9999999999987,-4.));
#1304=CARTESIAN_POINT('',(-65.0999999999986,58.9999999999987,14.));
#1305=CARTESIAN_POINT('Origin',(-67.1999999999986,58.9999999999987,-4.));
#1306=CARTESIAN_POINT('Origin',(-67.1999999999986,-59.,14.));
#1307=CARTESIAN_POINT('',(-65.0999999999986,-59.,8.));
#1308=CARTESIAN_POINT('Origin',(-67.1999999999986,-59.,8.));
#1309=CARTESIAN_POINT('',(-65.0999999999986,-59.,-4.));
#1310=CARTESIAN_POINT('',(-65.0999999999986,-59.,14.));
#1311=CARTESIAN_POINT('Origin',(-67.1999999999986,-59.,-4.));
#1312=CARTESIAN_POINT('Origin',(-67.1999999999986,-59.,-4.));
#1313=CARTESIAN_POINT('',(-71.241451884326,-59.,-4.));
#1314=CARTESIAN_POINT('',(-69.2207259421623,-62.5,-4.));
#1315=CARTESIAN_POINT('',(-71.241451884326,-59.,-4.));
#1316=CARTESIAN_POINT('',(-69.2207259421623,-55.5,-4.));
#1317=CARTESIAN_POINT('',(-69.2207259421623,-55.5,-4.));
#1318=CARTESIAN_POINT('',(-65.1792740578349,-55.5,-4.));
#1319=CARTESIAN_POINT('',(-65.1792740578349,-55.5,-4.));
#1320=CARTESIAN_POINT('',(-63.1585481156712,-59.,-4.));
#1321=CARTESIAN_POINT('',(-63.1585481156712,-59.,-4.));
#1322=CARTESIAN_POINT('',(-65.1792740578349,-62.5,-4.));
#1323=CARTESIAN_POINT('',(-65.1792740578349,-62.5,-4.));
#1324=CARTESIAN_POINT('',(-69.2207259421623,-62.5,-4.));
#1325=CARTESIAN_POINT('Origin',(-71.241451884326,-59.,-10.));
#1326=CARTESIAN_POINT('',(-71.241451884326,-59.,-10.));
#1327=CARTESIAN_POINT('',(-69.2207259421623,-62.5,-10.));
#1328=CARTESIAN_POINT('Origin',(-69.2207259421623,-62.5,-10.));
#1329=CARTESIAN_POINT('',(-65.1792740578349,-62.5,-10.));
#1330=CARTESIAN_POINT('Origin',(-65.1792740578349,-62.5,-10.));
#1331=CARTESIAN_POINT('',(-63.1585481156712,-59.,-10.));
#1332=CARTESIAN_POINT('Origin',(-63.1585481156712,-59.,-10.));
#1333=CARTESIAN_POINT('',(-65.1792740578349,-55.5,-10.));
#1334=CARTESIAN_POINT('Origin',(-65.1792740578349,-55.5,-10.));
#1335=CARTESIAN_POINT('',(-69.2207259421623,-55.5,-10.));
#1336=CARTESIAN_POINT('Origin',(-69.2207259421623,-55.5,-10.));
#1337=CARTESIAN_POINT('Origin',(-67.1999999999986,58.9999999999987,-4.));
#1338=CARTESIAN_POINT('',(-63.1585481156712,58.9999999999987,-4.));
#1339=CARTESIAN_POINT('',(-65.1792740578349,62.4999999999987,-4.));
#1340=CARTESIAN_POINT('',(-63.1585481156712,58.9999999999987,-4.));
#1341=CARTESIAN_POINT('',(-65.1792740578349,55.4999999999987,-4.));
#1342=CARTESIAN_POINT('',(-65.1792740578349,55.4999999999987,-4.));
#1343=CARTESIAN_POINT('',(-69.2207259421623,55.4999999999987,-4.));
#1344=CARTESIAN_POINT('',(-69.2207259421623,55.4999999999987,-4.));
#1345=CARTESIAN_POINT('',(-71.241451884326,58.9999999999987,-4.));
#1346=CARTESIAN_POINT('',(-71.241451884326,58.9999999999987,-4.));
#1347=CARTESIAN_POINT('',(-69.2207259421623,62.4999999999987,-4.));
#1348=CARTESIAN_POINT('',(-69.2207259421623,62.4999999999987,-4.));
#1349=CARTESIAN_POINT('',(-65.1792740578349,62.4999999999987,-4.));
#1350=CARTESIAN_POINT('Origin',(-63.1585481156712,58.9999999999987,-10.));
#1351=CARTESIAN_POINT('',(-63.1585481156712,58.9999999999987,-10.));
#1352=CARTESIAN_POINT('',(-65.1792740578349,62.4999999999987,-10.));
#1353=CARTESIAN_POINT('Origin',(-65.1792740578349,62.4999999999987,-10.));
#1354=CARTESIAN_POINT('',(-69.2207259421623,62.4999999999987,-10.));
#1355=CARTESIAN_POINT('Origin',(-69.2207259421623,62.4999999999987,-10.));
#1356=CARTESIAN_POINT('',(-71.241451884326,58.9999999999987,-10.));
#1357=CARTESIAN_POINT('Origin',(-71.241451884326,58.9999999999987,-10.));
#1358=CARTESIAN_POINT('',(-69.2207259421623,55.4999999999987,-10.));
#1359=CARTESIAN_POINT('Origin',(-69.2207259421623,55.4999999999987,-10.));
#1360=CARTESIAN_POINT('',(-65.1792740578349,55.4999999999987,-10.));
#1361=CARTESIAN_POINT('Origin',(-65.1792740578349,55.4999999999987,-10.));
#1362=CARTESIAN_POINT('Origin',(67.2,-59.,-4.));
#1363=CARTESIAN_POINT('',(71.2414518843274,-59.,-4.));
#1364=CARTESIAN_POINT('',(69.2207259421637,-55.5,-4.));
#1365=CARTESIAN_POINT('',(71.2414518843274,-59.,-4.));
#1366=CARTESIAN_POINT('',(69.2207259421637,-62.5,-4.));
#1367=CARTESIAN_POINT('',(69.2207259421637,-62.5,-4.));
#1368=CARTESIAN_POINT('',(65.1792740578363,-62.5,-4.));
#1369=CARTESIAN_POINT('',(65.1792740578363,-62.5,-4.));
#1370=CARTESIAN_POINT('',(63.1585481156726,-59.,-4.));
#1371=CARTESIAN_POINT('',(63.1585481156726,-59.,-4.));
#1372=CARTESIAN_POINT('',(65.1792740578363,-55.5,-4.));
#1373=CARTESIAN_POINT('',(65.1792740578363,-55.5,-4.));
#1374=CARTESIAN_POINT('',(69.2207259421637,-55.5,-4.));
#1375=CARTESIAN_POINT('Origin',(71.2414518843274,-59.,-10.));
#1376=CARTESIAN_POINT('',(71.2414518843274,-59.,-10.));
#1377=CARTESIAN_POINT('',(69.2207259421637,-55.5,-10.));
#1378=CARTESIAN_POINT('Origin',(69.2207259421637,-55.5,-10.));
#1379=CARTESIAN_POINT('',(65.1792740578363,-55.5,-10.));
#1380=CARTESIAN_POINT('Origin',(65.1792740578363,-55.5,-10.));
#1381=CARTESIAN_POINT('',(63.1585481156726,-59.,-10.));
#1382=CARTESIAN_POINT('Origin',(63.1585481156726,-59.,-10.));
#1383=CARTESIAN_POINT('',(65.1792740578363,-62.5,-10.));
#1384=CARTESIAN_POINT('Origin',(65.1792740578363,-62.5,-10.));
#1385=CARTESIAN_POINT('',(69.2207259421637,-62.5,-10.));
#1386=CARTESIAN_POINT('Origin',(69.2207259421637,-62.5,-10.));
#1387=CARTESIAN_POINT('Origin',(67.2,58.9999999999987,-4.));
#1388=CARTESIAN_POINT('',(65.1792740578363,62.4999999999987,-4.));
#1389=CARTESIAN_POINT('',(63.1585481156726,58.9999999999987,-4.));
#1390=CARTESIAN_POINT('',(65.1792740578363,62.4999999999987,-4.));
#1391=CARTESIAN_POINT('',(69.2207259421637,62.4999999999987,-4.));
#1392=CARTESIAN_POINT('',(69.2207259421637,62.4999999999987,-4.));
#1393=CARTESIAN_POINT('',(71.2414518843274,58.9999999999987,-4.));
#1394=CARTESIAN_POINT('',(71.2414518843274,58.9999999999987,-4.));
#1395=CARTESIAN_POINT('',(69.2207259421637,55.4999999999987,-4.));
#1396=CARTESIAN_POINT('',(69.2207259421637,55.4999999999987,-4.));
#1397=CARTESIAN_POINT('',(65.1792740578363,55.4999999999987,-4.));
#1398=CARTESIAN_POINT('',(65.1792740578363,55.4999999999987,-4.));
#1399=CARTESIAN_POINT('',(63.1585481156726,58.9999999999987,-4.));
#1400=CARTESIAN_POINT('Origin',(65.1792740578363,62.4999999999987,-10.));
#1401=CARTESIAN_POINT('',(65.1792740578363,62.4999999999987,-10.));
#1402=CARTESIAN_POINT('',(63.1585481156726,58.9999999999987,-10.));
#1403=CARTESIAN_POINT('Origin',(63.1585481156726,58.9999999999987,-10.));
#1404=CARTESIAN_POINT('',(65.1792740578363,55.4999999999987,-10.));
#1405=CARTESIAN_POINT('Origin',(65.1792740578363,55.4999999999987,-10.));
#1406=CARTESIAN_POINT('',(69.2207259421637,55.4999999999987,-10.));
#1407=CARTESIAN_POINT('Origin',(69.2207259421637,55.4999999999987,-10.));
#1408=CARTESIAN_POINT('',(71.2414518843274,58.9999999999987,-10.));
#1409=CARTESIAN_POINT('Origin',(71.2414518843274,58.9999999999987,-10.));
#1410=CARTESIAN_POINT('',(69.2207259421637,62.4999999999987,-10.));
#1411=CARTESIAN_POINT('Origin',(69.2207259421637,62.4999999999987,-10.));
#1412=CARTESIAN_POINT('Origin',(67.2,-59.,8.));
#1413=CARTESIAN_POINT('',(36.6000000000004,64.9999999999987,8.));
#1414=CARTESIAN_POINT('',(73.2,64.9999999999987,8.));
#1415=CARTESIAN_POINT('',(73.2,-32.5000000000003,8.));
#1416=CARTESIAN_POINT('',(36.6000000000004,64.9999999999987,8.));
#1417=CARTESIAN_POINT('Origin',(73.2,-65.,-10.));
#1418=CARTESIAN_POINT('',(73.2,64.9999999999987,-10.));
#1419=CARTESIAN_POINT('Origin',(73.2,64.9999999999987,-10.));
#1420=UNCERTAINTY_MEASURE_WITH_UNIT(LENGTH_MEASURE(0.01),#1424,
'DISTANCE_ACCURACY_VALUE',
'Maximum model space distance between geometric entities at asserted c
onnectivities');
#1421=UNCERTAINTY_MEASURE_WITH_UNIT(LENGTH_MEASURE(0.01),#1424,
'DISTANCE_ACCURACY_VALUE',
'Maximum model space distance between geometric entities at asserted c
onnectivities');
#1422=(
GEOMETRIC_REPRESENTATION_CONTEXT(3)
GLOBAL_UNCERTAINTY_ASSIGNED_CONTEXT((#1420))
GLOBAL_UNIT_ASSIGNED_CONTEXT((#1424,#1425,#1426))
REPRESENTATION_CONTEXT('','3D')
);
#1423=(
GEOMETRIC_REPRESENTATION_CONTEXT(3)
GLOBAL_UNCERTAINTY_ASSIGNED_CONTEXT((#1421))
GLOBAL_UNIT_ASSIGNED_CONTEXT((#1424,#1425,#1426))
REPRESENTATION_CONTEXT('','3D')
);
#1424=(
LENGTH_UNIT()
NAMED_UNIT(*)
SI_UNIT(.MILLI.,.METRE.)
);
#1425=(
NAMED_UNIT(*)
PLANE_ANGLE_UNIT()
SI_UNIT($,.RADIAN.)
);
#1426=(
NAMED_UNIT(*)
SI_UNIT($,.STERADIAN.)
SOLID_ANGLE_UNIT()
);
#1427=SHAPE_DEFINITION_REPRESENTATION(#1428,#1429);
#1428=PRODUCT_DEFINITION_SHAPE('',$,#1431);
#1429=SHAPE_REPRESENTATION('',(#896),#1422);
#1430=PRODUCT_DEFINITION_CONTEXT('part definition',#1435,'design');
#1431=PRODUCT_DEFINITION('MacroPad (v2~recovered)',
'MacroPad (v2~recovered)',#1432,#1430);
#1432=PRODUCT_DEFINITION_FORMATION('',$,#1437);
#1433=PRODUCT_RELATED_PRODUCT_CATEGORY('MacroPad (v2~recovered)',
'MacroPad (v2~recovered)',(#1437));
#1434=APPLICATION_PROTOCOL_DEFINITION('international standard',
'automotive_design',2009,#1435);
#1435=APPLICATION_CONTEXT(
'Core Data for Automotive Mechanical Design Process');
#1436=PRODUCT_CONTEXT('part definition',#1435,'mechanical');
#1437=PRODUCT('MacroPad (v2~recovered)','MacroPad (v2~recovered)',$,(#1436));
#1438=PRESENTATION_STYLE_ASSIGNMENT((#1453));
#1439=PRESENTATION_STYLE_ASSIGNMENT((#1454));
#1440=PRESENTATION_STYLE_ASSIGNMENT((#1455));
#1441=PRESENTATION_STYLE_ASSIGNMENT((#1456));
#1442=PRESENTATION_STYLE_ASSIGNMENT((#1457));
#1443=PRESENTATION_STYLE_ASSIGNMENT((#1458));
#1444=PRESENTATION_STYLE_ASSIGNMENT((#1459));
#1445=PRESENTATION_STYLE_ASSIGNMENT((#1460));
#1446=PRESENTATION_STYLE_ASSIGNMENT((#1461));
#1447=PRESENTATION_STYLE_ASSIGNMENT((#1462));
#1448=PRESENTATION_STYLE_ASSIGNMENT((#1463));
#1449=PRESENTATION_STYLE_ASSIGNMENT((#1464));
#1450=PRESENTATION_STYLE_ASSIGNMENT((#1465));
#1451=PRESENTATION_STYLE_ASSIGNMENT((#1466));
#1452=PRESENTATION_STYLE_ASSIGNMENT((#1467));
#1453=SURFACE_STYLE_USAGE(.BOTH.,#1468);
#1454=SURFACE_STYLE_USAGE(.BOTH.,#1469);
#1455=SURFACE_STYLE_USAGE(.BOTH.,#1470);
#1456=SURFACE_STYLE_USAGE(.BOTH.,#1471);
#1457=SURFACE_STYLE_USAGE(.BOTH.,#1472);
#1458=SURFACE_STYLE_USAGE(.BOTH.,#1473);
#1459=SURFACE_STYLE_USAGE(.BOTH.,#1474);
#1460=SURFACE_STYLE_USAGE(.BOTH.,#1475);
#1461=SURFACE_STYLE_USAGE(.BOTH.,#1476);
#1462=SURFACE_STYLE_USAGE(.BOTH.,#1477);
#1463=SURFACE_STYLE_USAGE(.BOTH.,#1478);
#1464=SURFACE_STYLE_USAGE(.BOTH.,#1479);
#1465=SURFACE_STYLE_USAGE(.BOTH.,#1480);
#1466=SURFACE_STYLE_USAGE(.BOTH.,#1481);
#1467=SURFACE_STYLE_USAGE(.BOTH.,#1482);
#1468=SURFACE_SIDE_STYLE('',(#1483));
#1469=SURFACE_SIDE_STYLE('',(#1484));
#1470=SURFACE_SIDE_STYLE('',(#1485));
#1471=SURFACE_SIDE_STYLE('',(#1486));
#1472=SURFACE_SIDE_STYLE('',(#1487));
#1473=SURFACE_SIDE_STYLE('',(#1488));
#1474=SURFACE_SIDE_STYLE('',(#1489));
#1475=SURFACE_SIDE_STYLE('',(#1490));
#1476=SURFACE_SIDE_STYLE('',(#1491));
#1477=SURFACE_SIDE_STYLE('',(#1492));
#1478=SURFACE_SIDE_STYLE('',(#1493));
#1479=SURFACE_SIDE_STYLE('',(#1494));
#1480=SURFACE_SIDE_STYLE('',(#1495));
#1481=SURFACE_SIDE_STYLE('',(#1496));
#1482=SURFACE_SIDE_STYLE('',(#1497));
#1483=SURFACE_STYLE_FILL_AREA(#1498);
#1484=SURFACE_STYLE_FILL_AREA(#1499);
#1485=SURFACE_STYLE_FILL_AREA(#1500);
#1486=SURFACE_STYLE_FILL_AREA(#1501);
#1487=SURFACE_STYLE_FILL_AREA(#1502);
#1488=SURFACE_STYLE_FILL_AREA(#1503);
#1489=SURFACE_STYLE_FILL_AREA(#1504);
#1490=SURFACE_STYLE_FILL_AREA(#1505);
#1491=SURFACE_STYLE_FILL_AREA(#1506);
#1492=SURFACE_STYLE_FILL_AREA(#1507);
#1493=SURFACE_STYLE_FILL_AREA(#1508);
#1494=SURFACE_STYLE_FILL_AREA(#1509);
#1495=SURFACE_STYLE_FILL_AREA(#1510);
#1496=SURFACE_STYLE_FILL_AREA(#1511);
#1497=SURFACE_STYLE_FILL_AREA(#1512);
#1498=FILL_AREA_STYLE('Opaque(80,124,105)',(#1513));
#1499=FILL_AREA_STYLE('Opaque(160,160,160)',(#1514));
#1500=FILL_AREA_STYLE('Opaque(69,80,94)',(#1515));
#1501=FILL_AREA_STYLE('Opaque(152,170,175)',(#1516));
#1502=FILL_AREA_STYLE('Opaque(211,212,213)',(#1517));
#1503=FILL_AREA_STYLE('Opaque(5,5,5)',(#1518));
#1504=FILL_AREA_STYLE('Opaque(176,173,173)',(#1519));
#1505=FILL_AREA_STYLE('Opaque(76,76,76)',(#1520));
#1506=FILL_AREA_STYLE('Opaque(191,191,191)',(#1521));
#1507=FILL_AREA_STYLE('Opaque(190,188,186)',(#1522));
#1508=FILL_AREA_STYLE('Opaque(130,116,95)',(#1523));
#1509=FILL_AREA_STYLE('Powder Coat (Black)',(#1524));
#1510=FILL_AREA_STYLE('Copper - Polished',(#1525));
#1511=FILL_AREA_STYLE('ABS (White)',(#1526));
#1512=FILL_AREA_STYLE('Steel - Satin',(#1527));
#1513=FILL_AREA_STYLE_COLOUR('Opaque(80,124,105)',#1528);
#1514=FILL_AREA_STYLE_COLOUR('Opaque(160,160,160)',#1529);
#1515=FILL_AREA_STYLE_COLOUR('Opaque(69,80,94)',#1530);
#1516=FILL_AREA_STYLE_COLOUR('Opaque(152,170,175)',#1531);
#1517=FILL_AREA_STYLE_COLOUR('Opaque(211,212,213)',#1532);
#1518=FILL_AREA_STYLE_COLOUR('Opaque(5,5,5)',#1533);
#1519=FILL_AREA_STYLE_COLOUR('Opaque(176,173,173)',#1534);
#1520=FILL_AREA_STYLE_COLOUR('Opaque(76,76,76)',#1535);
#1521=FILL_AREA_STYLE_COLOUR('Opaque(191,191,191)',#1536);
#1522=FILL_AREA_STYLE_COLOUR('Opaque(190,188,186)',#1537);
#1523=FILL_AREA_STYLE_COLOUR('Opaque(130,116,95)',#1538);
#1524=FILL_AREA_STYLE_COLOUR('Powder Coat (Black)',#1539);
#1525=FILL_AREA_STYLE_COLOUR('Copper - Polished',#1540);
#1526=FILL_AREA_STYLE_COLOUR('ABS (White)',#1541);
#1527=FILL_AREA_STYLE_COLOUR('Steel - Satin',#1542);
#1528=COLOUR_RGB('Opaque(80,124,105)',0.313725490196078,0.486274509803922,
0.411764705882353);
#1529=COLOUR_RGB('Opaque(160,160,160)',0.627450980392157,0.627450980392157,
0.627450980392157);
#1530=COLOUR_RGB('Opaque(69,80,94)',0.270588235294118,0.313725490196078,
0.368627450980392);
#1531=COLOUR_RGB('Opaque(152,170,175)',0.596078431372549,0.666666666666667,
0.686274509803922);
#1532=COLOUR_RGB('Opaque(211,212,213)',0.827450980392157,0.831372549019608,
0.835294117647059);
#1533=COLOUR_RGB('Opaque(5,5,5)',0.0196078431372549,0.0196078431372549,
0.0196078431372549);
#1534=COLOUR_RGB('Opaque(176,173,173)',0.690196078431373,0.67843137254902,
0.67843137254902);
#1535=COLOUR_RGB('Opaque(76,76,76)',0.298039215686275,0.298039215686275,
0.298039215686275);
#1536=COLOUR_RGB('Opaque(191,191,191)',0.749019607843137,0.749019607843137,
0.749019607843137);
#1537=COLOUR_RGB('Opaque(190,188,186)',0.745098039215686,0.737254901960784,
0.729411764705882);
#1538=COLOUR_RGB('Opaque(130,116,95)',0.509803921568627,0.454901960784314,
0.372549019607843);
#1539=COLOUR_RGB('Powder Coat (Black)',0.0980392156862745,0.0980392156862745,
0.0980392156862745);
#1540=COLOUR_RGB('Copper - Polished',0.929411764705882,0.807843137254902,
0.764705882352941);
#1541=COLOUR_RGB('ABS (White)',0.964705882352941,0.964705882352941,0.952941176470588);
#1542=COLOUR_RGB('Steel - Satin',0.627450980392157,0.627450980392157,0.627450980392157);
ENDSEC;
END-ISO-10303-21;
